<svg xmlns="http://www.w3.org/2000/svg" width="310" height="476" viewBox="0 0 310 476" version="1.1"><path d="M 155.500 174 C 150.734 174.527, 152.156 174.698, 162.417 174.832 C 169.521 174.924, 175.146 174.837, 174.917 174.637 C 173.965 173.807, 161.065 173.384, 155.500 174 M 142.500 176 L 140.500 176.859 142.500 176.859 C 143.600 176.859, 145.400 176.473, 146.500 176 L 148.500 175.141 146.500 175.141 C 145.400 175.141, 143.600 175.527, 142.500 176 M 178 176 C 179.375 176.440, 181.400 176.814, 182.500 176.830 L 184.500 176.859 182.500 176 C 181.400 175.527, 179.375 175.154, 178 175.170 L 175.500 175.199 178 176 M 131 179.348 C 122.793 182.561, 115.384 186.633, 106.860 192.618 C 96.949 199.577, 95.830 201.922, 101.250 204.380 C 110.850 208.735, 164.683 210.892, 197.500 208.237 C 217.901 206.587, 223 205.944, 223 205.020 C 223 204.587, 223.900 203.998, 225 203.710 C 230.452 202.284, 224.110 195.408, 209.476 186.877 C 202.907 183.048, 188.369 176.958, 186 177.043 C 185.175 177.073, 187.986 178.393, 192.246 179.976 C 206.706 185.351, 224.198 196.485, 224.809 200.703 C 225.155 203.096, 222.546 203.837, 205.500 206.189 C 193.284 207.875, 130.644 207.891, 118.500 206.212 C 103.877 204.189, 100 203.079, 100 200.915 C 100 196.910, 120.766 183.761, 133.750 179.544 C 136.637 178.607, 139 177.650, 139 177.420 C 139 176.603, 136.433 177.221, 131 179.348 M 108.015 248.133 C 108.065 252.542, 110.667 253.007, 146.283 254.979 C 164.950 256.013, 185.528 255.335, 206.337 253.002 C 216.354 251.878, 217 251.632, 217 248.931 C 217 247.213, 216.490 247.047, 212.750 247.542 C 210.412 247.852, 203.775 248.722, 198 249.476 C 185.769 251.073, 142.485 251.453, 133.500 250.043 C 130.200 249.525, 124.125 248.880, 120 248.609 C 115.875 248.338, 111.487 247.813, 110.250 247.442 C 108.682 246.971, 108.005 247.181, 108.015 248.133" stroke="none" fill="#ddb4b2" fill-rule="evenodd"/><path d="M 0 238.003 L 0 476.006 155.250 475.753 L 310.500 475.500 310.752 237.750 L 311.004 0 155.502 0 L 0 0 0 238.003 M 0.492 238.500 C 0.492 369.400, 0.608 423.099, 0.750 357.830 C 0.892 292.562, 0.892 185.462, 0.750 119.830 C 0.608 54.199, 0.492 107.600, 0.492 238.500 M 180.500 75.132 C 175.809 77.470, 173 85.307, 173 96.055 C 173 101.937, 173.732 104, 175.820 104 C 177.753 104, 188 93.407, 188 91.409 C 188 90.634, 188.450 90, 189 90 C 190.449 90, 190.230 86.251, 188.750 85.708 C 187.750 85.342, 187.750 84.985, 188.750 83.925 C 189.438 83.196, 189.996 81.227, 189.992 79.550 C 189.986 77.219, 189.350 76.205, 187.293 75.250 C 184.159 73.795, 183.216 73.778, 180.500 75.132 M 187 79 C 187 80.100, 187.408 81, 187.906 81 C 188.405 81, 188.577 80.100, 188.290 79 C 188.002 77.900, 187.594 77, 187.383 77 C 187.173 77, 187 77.900, 187 79 M 147.953 116.623 C 146.097 121.504, 149.199 130.874, 154.723 137.074 C 159.382 142.303, 160.776 140.848, 161.715 129.774 C 162.195 124.117, 162.025 122.947, 160.643 122.417 C 159.739 122.070, 159 120.741, 159 119.464 C 159 116.150, 156.405 114, 152.404 114 C 149.597 114, 148.764 114.491, 147.953 116.623 M 186.306 131.750 C 181.072 137.303, 177.024 145.142, 177.010 149.750 C 177.002 152.478, 177.370 153, 179.301 153 C 181.854 153, 192.269 146.554, 195.702 142.849 C 201.171 136.947, 201.750 130.542, 197.043 128.023 C 193.369 126.057, 190.847 126.933, 186.306 131.750 M 125.873 141.973 C 123.507 144.339, 123.102 145.323, 123.891 146.796 C 125.782 150.329, 131.527 155.258, 136.500 157.613 C 142.247 160.334, 145 160.632, 145 158.531 C 145 156.486, 140.891 148.671, 139.306 147.700 C 138.588 147.260, 137.981 146.135, 137.958 145.200 C 137.917 143.570, 131.944 139, 129.854 139 C 129.300 139, 127.508 140.338, 125.873 141.973 M 150 173.543 C 141.716 174.978, 129.032 178.679, 127.550 180.094 C 127.027 180.592, 125.790 181, 124.800 181 C 123.810 181, 123 181.450, 123 182 C 123 182.550, 122.351 183, 121.557 183 C 119.930 183, 114.676 185.925, 108 190.547 C 105.525 192.261, 101.250 194.475, 98.500 195.468 C 89.656 198.662, 90 197.662, 90 220.170 L 90 240.029 93.250 242.012 C 95.038 243.103, 98.580 244.688, 101.121 245.535 C 105.656 247.046, 105.764 247.183, 106.884 252.788 C 107.512 255.929, 109.138 266.825, 110.499 277 C 111.859 287.175, 113.408 298.425, 113.942 302 C 114.475 305.575, 115.409 312.550, 116.018 317.500 C 116.626 322.450, 117.677 327.625, 118.352 329 L 119.580 331.500 160.040 331.705 C 182.293 331.817, 202.128 331.675, 204.117 331.389 C 207.704 330.873, 207.739 330.821, 208.301 325.185 C 208.613 322.058, 210.522 307.575, 212.545 293 C 214.568 278.425, 216.429 264.025, 216.681 261 C 216.933 257.975, 217.521 254.375, 217.988 253 C 218.455 251.625, 219.108 249.262, 219.438 247.750 C 219.851 245.855, 220.667 245, 222.059 245 C 223.170 245, 225.862 244.091, 228.040 242.980 L 232 240.959 232 220.009 L 232 199.059 226.250 196.363 C 223.088 194.880, 220.275 193.353, 220 192.971 C 219.165 191.808, 205.048 183, 204.020 183 C 203.493 183, 201.485 182.115, 199.560 181.034 C 193.976 177.897, 184.269 175.051, 173.757 173.468 C 162.494 171.771, 160.186 171.779, 150 173.543" stroke="none" fill="#f7f7f7" fill-rule="evenodd"/><path d="M 154.750 173.706 C 155.988 173.944, 158.012 173.944, 159.250 173.706 C 160.488 173.467, 159.475 173.272, 157 173.272 C 154.525 173.272, 153.512 173.467, 154.750 173.706 M 167.762 173.707 C 169.006 173.946, 170.806 173.937, 171.762 173.687 C 172.718 173.437, 171.700 173.241, 169.500 173.252 C 167.300 173.263, 166.518 173.468, 167.762 173.707 M 146.269 174.693 C 147.242 174.947, 148.592 174.930, 149.269 174.656 C 149.946 174.382, 149.150 174.175, 147.500 174.195 C 145.850 174.215, 145.296 174.439, 146.269 174.693 M 176.269 174.693 C 177.242 174.947, 178.592 174.930, 179.269 174.656 C 179.946 174.382, 179.150 174.175, 177.500 174.195 C 175.850 174.215, 175.296 174.439, 176.269 174.693 M 139 176 C 136.990 176.644, 136.892 176.806, 138.500 176.830 C 139.600 176.846, 141.400 176.473, 142.500 176 C 145.048 174.905, 142.419 174.905, 139 176 M 133 178 C 132.175 178.533, 131.950 178.969, 132.500 178.969 C 133.050 178.969, 134.175 178.533, 135 178 C 135.825 177.467, 136.050 177.031, 135.500 177.031 C 134.950 177.031, 133.825 177.467, 133 178 M 204 183.449 C 204 183.724, 205.350 184.647, 207 185.500 C 208.650 186.353, 210 186.826, 210 186.551 C 210 186.276, 208.650 185.353, 207 184.500 C 205.350 183.647, 204 183.174, 204 183.449 M 217.500 192 C 218.495 193.100, 219.535 194, 219.810 194 C 220.085 194, 219.495 193.100, 218.500 192 C 217.505 190.900, 216.465 190, 216.190 190 C 215.915 190, 216.505 190.900, 217.500 192 M 98 195.651 C 89.765 198.496, 90 197.777, 90 220.170 L 90 240.029 93.250 242.012 C 95.037 243.103, 98.580 244.688, 101.121 245.535 C 105.656 247.046, 105.764 247.183, 106.884 252.788 C 107.512 255.929, 109.138 266.825, 110.499 277 C 111.859 287.175, 113.408 298.425, 113.942 302 C 114.475 305.575, 115.409 312.550, 116.018 317.500 C 116.626 322.450, 117.677 327.625, 118.352 329 L 119.580 331.500 160.040 331.705 C 182.293 331.817, 202.128 331.675, 204.117 331.389 C 207.704 330.873, 207.739 330.821, 208.301 325.185 C 208.613 322.058, 210.522 307.575, 212.545 293 C 214.568 278.425, 216.429 264.025, 216.681 261 C 216.933 257.975, 217.521 254.375, 217.988 253 C 218.455 251.625, 219.108 249.263, 219.438 247.750 C 219.851 245.855, 220.667 245, 222.059 245 C 223.170 245, 225.862 244.091, 228.040 242.980 L 232 240.959 232 219.944 L 232 198.929 227.250 196.758 C 220.310 193.586, 220.195 193.577, 223.750 196.486 C 227.431 199.497, 228.023 202.920, 225 203.710 C 223.900 203.998, 223 204.587, 223 205.020 C 223 205.944, 217.901 206.587, 197.500 208.237 C 164.683 210.892, 110.850 208.735, 101.250 204.380 C 97.181 202.535, 97.144 200.602, 101.106 196.901 C 104.630 193.609, 104.296 193.475, 98 195.651 M 108.015 248.133 C 108.065 252.542, 110.667 253.007, 146.283 254.979 C 164.950 256.013, 185.528 255.335, 206.337 253.002 C 216.354 251.878, 217 251.632, 217 248.931 C 217 247.213, 216.490 247.047, 212.750 247.542 C 210.412 247.852, 203.775 248.722, 198 249.476 C 185.769 251.073, 142.485 251.453, 133.500 250.043 C 130.200 249.525, 124.125 248.880, 120 248.609 C 115.875 248.338, 111.487 247.813, 110.250 247.442 C 108.682 246.971, 108.005 247.181, 108.015 248.133" stroke="none" fill="#ecc5c2" fill-rule="evenodd"/><path d="M 180.500 75.132 C 175.809 77.470, 173 85.307, 173 96.055 C 173 101.937, 173.732 104, 175.820 104 C 177.753 104, 188 93.407, 188 91.409 C 188 90.634, 188.450 90, 189 90 C 190.449 90, 190.230 86.251, 188.750 85.708 C 187.750 85.342, 187.750 84.985, 188.750 83.925 C 189.438 83.196, 189.996 81.227, 189.992 79.550 C 189.986 77.219, 189.350 76.205, 187.293 75.250 C 184.159 73.795, 183.216 73.778, 180.500 75.132 M 187 79 C 187 80.100, 187.408 81, 187.906 81 C 188.405 81, 188.577 80.100, 188.290 79 C 188.002 77.900, 187.594 77, 187.383 77 C 187.173 77, 187 77.900, 187 79 M 179.703 90.169 C 175.580 99.522, 175.124 102.802, 178.314 100.154 C 179.734 98.976, 182.554 88.221, 181.675 87.341 C 181.398 87.064, 180.510 88.337, 179.703 90.169 M 147.953 116.623 C 146.097 121.504, 149.199 130.874, 154.723 137.074 C 159.382 142.303, 160.776 140.848, 161.715 129.774 C 162.195 124.117, 162.025 122.947, 160.643 122.417 C 159.739 122.070, 159 120.741, 159 119.464 C 159 116.150, 156.405 114, 152.404 114 C 149.597 114, 148.764 114.491, 147.953 116.623 M 154.056 125.050 C 154.087 126.948, 154.961 130.525, 156 133 L 157.888 137.500 157.944 133.899 C 158.002 130.185, 156.383 124.222, 154.864 122.550 C 154.363 121.999, 154.023 123.050, 154.056 125.050 M 186.306 131.750 C 181.072 137.303, 177.024 145.142, 177.010 149.750 C 177.002 152.478, 177.370 153, 179.301 153 C 181.854 153, 192.269 146.554, 195.702 142.849 C 201.171 136.947, 201.750 130.542, 197.043 128.023 C 193.369 126.057, 190.847 126.933, 186.306 131.750 M 190.250 135.662 C 189.563 135.940, 189 136.800, 189 137.575 C 189 138.349, 188.100 139.545, 187 140.232 C 184.877 141.558, 184.275 144, 186.071 144 C 187.316 144, 188.891 142.500, 191.291 139.027 C 193.822 135.365, 193.508 134.348, 190.250 135.662 M 125.873 141.973 C 123.507 144.339, 123.102 145.323, 123.891 146.796 C 125.782 150.329, 131.527 155.258, 136.500 157.613 C 142.247 160.334, 145 160.632, 145 158.531 C 145 156.486, 140.891 148.671, 139.306 147.700 C 138.588 147.260, 137.981 146.135, 137.958 145.200 C 137.917 143.570, 131.944 139, 129.854 139 C 129.300 139, 127.508 140.338, 125.873 141.973" stroke="none" fill="#f7e095" fill-rule="evenodd"/><path d="M 179.703 90.169 C 175.580 99.522, 175.124 102.802, 178.314 100.154 C 179.734 98.976, 182.554 88.221, 181.675 87.341 C 181.398 87.064, 180.510 88.337, 179.703 90.169 M 154.056 125.050 C 154.087 126.948, 154.961 130.525, 156 133 L 157.888 137.500 157.944 133.899 C 158.002 130.185, 156.383 124.222, 154.864 122.550 C 154.363 121.999, 154.023 123.050, 154.056 125.050 M 190.250 135.662 C 189.563 135.940, 189 136.800, 189 137.575 C 189 138.349, 188.100 139.545, 187 140.232 C 184.877 141.558, 184.275 144, 186.071 144 C 187.316 144, 188.891 142.500, 191.291 139.027 C 193.822 135.365, 193.508 134.348, 190.250 135.662 M 159.250 172.716 C 160.762 172.945, 163.238 172.945, 164.750 172.716 C 166.262 172.487, 165.025 172.300, 162 172.300 C 158.975 172.300, 157.738 172.487, 159.250 172.716" stroke="none" fill="#f7d998" fill-rule="evenodd"/><path d="M 145 176.165 C 129.398 180.448, 115.204 187.096, 105.646 194.598 C 98.471 200.229, 98.261 202.404, 104.750 203.884 C 117.288 206.743, 128.750 207.456, 162 207.444 C 195.022 207.432, 205.145 206.810, 219.809 203.891 C 224.397 202.977, 225.075 202.545, 224.809 200.703 C 223.929 194.631, 198.355 180.677, 180.530 176.543 C 173.066 174.812, 150.792 174.575, 145 176.165" stroke="none" fill="#b66845" fill-rule="evenodd"/></svg>