<svg xml:space="preserve" viewBox="0 0 100 100" y="0px" x="0px" xmlns:xlink="http://www.w3.org/1999/xlink" xmlns="http://www.w3.org/2000/svg" id="Layer_1" version="1.1" preserveAspectRatio="xMidYMid" width="200" height="200" style="margin-top:0px;margin-right:0px;margin-bottom:0px;margin-left:0px;display:block;shape-rendering:auto;background-position-x:0%;background-position-y:0%;background-size:auto;background-origin:padding-box;background-clip:border-box;background:scroll rgba(0, 0, 0, 0) none  repeat;width:200px;height:200px;;animation:none"><g class="ldl-scale" style="transform-origin:50px 50px;transform:matrix(0.8, 0, 0, 0.8, 0, 0);;animation:none"><g class="ldl-ani"><g class="ldl-layer"><g class="ldl-ani" style="transform-box:view-box;transform:matrix(1, 0, 0, 1, 0, 0);animation-duration:1s;animation-timing-function:linear;animation-delay:-0.76375s;animation-iteration-count:infinite;animation-direction:normal;animation-fill-mode:forwards;animation-play-state:paused;animation-name:animate;animation-timeline:auto;animation-range-start:normal;animation-range-end:normal;transform-origin:50px 50px;;animation:none"><path d="M73.93,38.34c6.65-9.16,5.76-17.45,0.17-21.51c-5.59-4.06-13.74-2.35-20.4,6.81c-1.96,2.7-3.09,6.11-3.7,9.56 c-0.61-3.46-1.74-6.86-3.7-9.56c-6.65-9.16-14.81-10.87-20.4-6.81s-6.48,12.35,0.17,21.51c1.96,2.7,4.86,4.82,7.95,6.47 c-3.48-0.49-7.06-0.47-10.24,0.56c-10.77,3.5-14.91,10.73-12.78,17.3c2.13,6.57,9.74,9.98,20.51,6.48c3.18-1.03,6.09-3.13,8.62-5.56 c-1.54,3.16-2.63,6.57-2.63,9.91C37.5,84.82,43.1,91,50,91s12.5-6.18,12.5-17.5c0-3.34-1.09-6.76-2.63-9.91 c2.53,2.44,5.44,4.53,8.62,5.56c10.77,3.5,18.37,0.09,20.51-6.48c2.13-6.57-2.01-13.8-12.78-17.3c-3.18-1.03-6.76-1.05-10.24-0.56 C69.07,43.16,71.96,41.04,73.93,38.34z" stroke-miterlimit="10" stroke-linejoin="round" stroke-linecap="round" stroke-width="3.5" stroke="#333435" fill="#E15D64" style="stroke-width:3.5px;fill:rgb(255, 193, 207);stroke:rgb(51, 52, 53);;animation:none"></path></g></g>
<g class="ldl-layer"><g class="ldl-ani" style="transform-box:view-box;transform:matrix(1, 0, 0, 1, 0, 0);animation-duration:1s;animation-timing-function:linear;animation-delay:-0.7975s;animation-iteration-count:infinite;animation-direction:normal;animation-fill-mode:forwards;animation-play-state:paused;animation-name:animate;animation-timeline:auto;animation-range-start:normal;animation-range-end:normal;transform-origin:50px 50px;;animation:none"><path d="M76.21,54.63c10.77-3.5,14.91-10.73,12.78-17.3c-2.13-6.57-9.74-9.98-20.51-6.48c-3.18,1.03-6.09,3.13-8.62,5.56 c1.54-3.16,2.63-6.57,2.63-9.91C62.5,15.18,56.9,9,50,9s-12.5,6.18-12.5,17.5c0,3.34,1.09,6.76,2.63,9.91 c-2.53-2.44-5.44-4.53-8.62-5.56c-10.77-3.5-18.37-0.09-20.51,6.48c-2.13,6.57,2.01,13.8,12.78,17.3c3.18,1.03,6.76,1.05,10.24,0.56 c-3.1,1.65-5.99,3.77-7.95,6.47c-6.65,9.16-5.76,17.45-0.17,21.51s13.74,2.35,20.4-6.81c1.96-2.7,3.09-6.11,3.7-9.56 c0.61,3.46,1.74,6.86,3.7,9.56c6.65,9.16,14.81,10.87,20.4,6.81s6.48-12.35-0.17-21.51c-1.96-2.7-4.86-4.82-7.95-6.47 C69.45,55.67,73.03,55.66,76.21,54.63z" stroke-miterlimit="10" stroke-linejoin="round" stroke-linecap="round" stroke-width="3.5" stroke="#333435" fill="#F8AFB4" style="stroke-width:3.5px;fill:rgb(246, 146, 151);stroke:rgb(51, 52, 53);;animation:none"></path></g></g>
<g class="ldl-layer"><g class="ldl-ani"><g><g class="ldl-layer"><g class="ldl-ani" style="transform-box:view-box;transform:matrix(1, 0, 0, 1, 0, 0);animation-duration:1s;animation-timing-function:linear;animation-delay:-0.83125s;animation-iteration-count:infinite;animation-direction:normal;animation-fill-mode:forwards;animation-play-state:paused;animation-name:animate;animation-timeline:auto;animation-range-start:normal;animation-range-end:normal;transform-origin:50px 50px;;animation:none"><circle r="6" cy="50" cx="50" stroke-miterlimit="10" stroke-linejoin="round" stroke-linecap="round" stroke-width="3.5" stroke="#333435" fill="#FFFFFF" style="stroke-width:3.5px;fill:rgb(253, 238, 234);stroke:rgb(51, 52, 53);;animation:none"></circle></g></g>
<g class="ldl-layer"><g class="ldl-ani" style="transform-box:view-box;transform:matrix(1, 0, 0, 1, 0, 0);animation-duration:1s;animation-timing-function:linear;animation-delay:-0.865s;animation-iteration-count:infinite;animation-direction:normal;animation-fill-mode:forwards;animation-play-state:paused;animation-name:animate;animation-timeline:auto;animation-range-start:normal;animation-range-end:normal;transform-origin:50px 50px;;animation:none"><line y2="35" x2="50" y1="44" x1="50" stroke-miterlimit="10" stroke-linejoin="round" stroke-linecap="round" stroke-width="3.5" stroke="#333435" fill="none" style="stroke-width:3.5px;stroke:rgb(51, 52, 53);fill:none;;animation:none"></line></g></g>
<g class="ldl-layer"><g class="ldl-ani" style="transform-box:view-box;transform:matrix(1, 0, 0, 1, 0, 0);animation-duration:1s;animation-timing-function:linear;animation-delay:-0.89875s;animation-iteration-count:infinite;animation-direction:normal;animation-fill-mode:forwards;animation-play-state:paused;animation-name:animate;animation-timeline:auto;animation-range-start:normal;animation-range-end:normal;transform-origin:50px 50px;;animation:none"><line y2="45.36" x2="35.73" y1="48.15" x1="44.29" stroke-miterlimit="10" stroke-linejoin="round" stroke-linecap="round" stroke-width="3.5" stroke="#333435" fill="none" style="stroke-width:3.5px;stroke:rgb(51, 52, 53);fill:none;;animation:none"></line></g></g>
<g class="ldl-layer"><g class="ldl-ani" style="transform-box:view-box;transform:matrix(1, 0, 0, 1, 0, 0);animation-duration:1s;animation-timing-function:linear;animation-delay:-0.9325s;animation-iteration-count:infinite;animation-direction:normal;animation-fill-mode:forwards;animation-play-state:paused;animation-name:animate;animation-timeline:auto;animation-range-start:normal;animation-range-end:normal;transform-origin:50px 50px;;animation:none"><line y2="62.14" x2="41.18" y1="54.85" x1="46.47" stroke-miterlimit="10" stroke-linejoin="round" stroke-linecap="round" stroke-width="3.5" stroke="#333435" fill="none" style="stroke-width:3.5px;stroke:rgb(51, 52, 53);fill:none;;animation:none"></line></g></g>
<g class="ldl-layer"><g class="ldl-ani" style="transform-box:view-box;transform:matrix(1, 0, 0, 1, 0, 0);animation-duration:1s;animation-timing-function:linear;animation-delay:-0.96625s;animation-iteration-count:infinite;animation-direction:normal;animation-fill-mode:forwards;animation-play-state:paused;animation-name:animate;animation-timeline:auto;animation-range-start:normal;animation-range-end:normal;transform-origin:50px 50px;;animation:none"><line y2="62.14" x2="58.82" y1="54.85" x1="53.53" stroke-miterlimit="10" stroke-linejoin="round" stroke-linecap="round" stroke-width="3.5" stroke="#333435" fill="none" style="stroke-width:3.5px;stroke:rgb(51, 52, 53);fill:none;;animation:none"></line></g></g>
<g class="ldl-layer"><g class="ldl-ani" style="transform-box:view-box;transform:matrix(1, 0, 0, 1, 0, 0);animation-duration:1s;animation-timing-function:linear;animation-delay:-1s;animation-iteration-count:infinite;animation-direction:normal;animation-fill-mode:forwards;animation-play-state:paused;animation-name:animate;animation-timeline:auto;animation-range-start:normal;animation-range-end:normal;transform-origin:50px 50px;;animation:none"><line y2="45.36" x2="64.27" y1="48.15" x1="55.71" stroke-miterlimit="10" stroke-linejoin="round" stroke-linecap="round" stroke-width="3.5" stroke="#333435" fill="none" style="stroke-width:3.5px;stroke:rgb(51, 52, 53);fill:none;;animation:none"></line></g></g></g></g></g>
<metadata xmlns:d="https://loading.io/stock/"></metadata></g></g>
<STYLE type="text/css">@keyframes animate { 0.00% {animation-timing-function: cubic-bezier(0.33,0.00,0.67,0.00);transform: translate(0.00px,0.00px) rotate(0.00deg) scale(1.00, 1.00) skew(0deg, 0.00deg) ;opacity: 1.00;}50.00% {animation-timing-function: cubic-bezier(0.33,0.00,0.67,0.00);transform: translate(0.00px,0.00px) rotate(0.00deg) ;}100.00% {animation-timing-function: cubic-bezier(0.33,0.00,0.67,0.00);transform: translate(0.00px,0.00px) rotate(0.00deg) ;} }</STYLE><!-- [ldio] generated by https://loading.io --></svg>