<svg xmlns="http://www.w3.org/2000/svg" width="616" height="836" viewBox="0 0 616 836" version="1.1"><path d="M 274 108 C 274 113.333, 273.778 114, 272 114 C 270.900 114, 270 114.398, 270 114.883 C 270 115.369, 270.900 116.002, 272 116.290 C 273.688 116.731, 274 117.654, 274 122.206 C 274 128.032, 275.159 130, 278.589 130 C 281.148 130, 285.844 126.517, 284.756 125.426 C 284.347 125.015, 283.083 125.520, 281.948 126.547 C 278.686 129.499, 276.500 127.429, 276.500 121.391 L 276.500 116.500 280.750 116.193 C 286.137 115.803, 286.343 114, 281 114 L 277 114 277 109.582 C 277 104.692, 276.252 102, 274.893 102 C 274.402 102, 274 104.700, 274 108 M 486.639 102.694 C 486.288 103.046, 486 105.733, 486 108.667 C 486 113.333, 485.750 114, 484 114 C 482.900 114, 482 114.450, 482 115 C 482 115.550, 482.900 116, 484 116 C 485.721 116, 486 116.667, 486 120.777 C 486 128.895, 491.151 132.805, 495.506 127.994 C 497.849 125.405, 496.627 124.123, 494.043 126.461 C 490.659 129.524, 488.852 127.772, 489.197 121.761 L 489.500 116.500 493.250 116.190 C 498.264 115.775, 498.061 114, 493 114 L 489 114 489 108.559 C 489 103.450, 488.105 101.228, 486.639 102.694 M 255.315 104.007 C 254.114 104.491, 252.613 105.854, 251.980 107.037 C 250.021 110.698, 251.659 113.807, 257.526 117.560 C 261.759 120.267, 263 121.627, 263 123.555 C 263 126.696, 259.208 128.410, 255.435 126.975 C 251.391 125.438, 250.289 125.891, 252.861 128.033 C 257.608 131.988, 266 129.348, 266 123.900 C 266 121.809, 261.706 117.125, 256.653 113.703 C 253.825 111.788, 253.238 109.162, 255.200 107.200 C 256.656 105.744, 260.646 105.618, 261.500 107 C 262.439 108.519, 265.013 108.197, 264.414 106.635 C 263.918 105.344, 259.716 102.927, 258.203 103.063 C 257.816 103.098, 256.517 103.523, 255.315 104.007 M 371 104.441 C 371 105.234, 371.450 106.160, 372 106.500 C 372.568 106.851, 373 111.844, 373 118.059 C 373 127.118, 373.258 129, 374.500 129 C 376.671 129, 376.650 110.157, 374.474 105.950 C 372.861 102.831, 371 102.023, 371 104.441 M 411.561 105.250 C 411.998 106.487, 412.528 112.563, 412.738 118.750 C 413.043 127.696, 413.416 130, 414.561 130 C 415.631 130, 416 128.648, 416 124.724 L 416 119.447 419.750 119.796 C 426.675 120.441, 430.829 113.828, 427.305 107.770 C 425.787 105.161, 424.663 104.438, 421.743 104.192 C 419.731 104.023, 417.211 104.352, 416.142 104.924 C 414.655 105.720, 414.067 105.616, 413.631 104.482 C 412.668 101.971, 410.666 102.714, 411.561 105.250 M 473.336 105.567 C 472.502 107.739, 474.618 109.782, 476.133 108.267 C 477.413 106.987, 476.620 104, 475 104 C 474.415 104, 473.667 104.705, 473.336 105.567 M 504.336 105.567 C 504.005 106.429, 504.225 107.625, 504.825 108.225 C 506.269 109.669, 509.096 107.414, 508.334 105.427 C 507.602 103.521, 505.087 103.609, 504.336 105.567 M 356 107.360 C 356 108.199, 355.071 110.461, 353.935 112.386 C 352.289 115.175, 352.093 116.305, 352.970 117.943 C 353.575 119.075, 354.505 120, 355.035 120 C 356.811 120, 356.029 125.664, 354 127.500 C 351.608 129.665, 351.388 134.245, 353.571 136.429 C 355.593 138.451, 359.927 138.440, 362.832 136.405 C 366.195 134.049, 365.555 128.018, 361.750 126.203 C 359.142 124.959, 357.793 121, 359.977 121 C 360.514 121, 361.703 119.857, 362.619 118.459 C 364.616 115.410, 363.367 111.569, 360.035 110.511 C 358.877 110.144, 358.070 109.149, 358.224 108.278 C 358.376 107.414, 357.938 106.511, 357.250 106.270 C 356.563 106.030, 356 106.520, 356 107.360 M 417.750 107.080 C 415.400 108.449, 415.269 116.505, 417.582 117.393 C 420.285 118.430, 421.926 118.074, 424 116 C 426.496 113.504, 426.571 109.827, 424.171 107.655 C 422.091 105.772, 420.275 105.610, 417.750 107.080 M 391.796 116.750 C 391.506 123.360, 391.440 123.507, 388.628 123.828 C 384.644 124.283, 383.639 122.863, 383.774 116.964 C 383.927 110.213, 381.613 110.767, 381.207 117.579 C 380.828 123.938, 382.499 126.312, 387.432 126.419 C 391.006 126.497, 391.122 126.611, 390.549 129.487 C 389.645 134.032, 387.632 135.609, 384.537 134.199 C 383.142 133.563, 382 133.393, 382 133.821 C 382 135.439, 384.498 137, 387.086 137 C 391.166 137, 393.222 131.718, 393.798 119.753 C 394.118 113.104, 393.921 110, 393.179 110 C 392.532 110, 391.972 112.734, 391.796 116.750 M 457.748 112.163 C 452.187 114.194, 453.534 120.913, 459.818 122.490 C 463.164 123.330, 465 124.820, 465 126.697 C 465 127.817, 463.800 128.085, 459.750 127.870 C 456.863 127.716, 454.500 128.021, 454.500 128.545 C 454.500 130.209, 461.270 131.277, 464.316 130.093 C 466.599 129.206, 467.073 128.478, 466.816 126.250 C 466.566 124.075, 465.493 123.019, 461.687 121.201 C 457.822 119.355, 456.935 118.469, 457.187 116.701 C 457.459 114.791, 458.062 114.525, 461.750 114.689 C 466.485 114.900, 467.371 113.472, 463.435 111.975 C 462.024 111.439, 460.787 111.036, 460.685 111.079 C 460.583 111.122, 459.262 111.610, 457.748 112.163 M 355.930 113.584 C 354.278 115.575, 355.863 118.500, 358.595 118.500 C 360.838 118.500, 361.651 115.490, 359.960 113.452 C 358.418 111.594, 357.559 111.622, 355.930 113.584 M 331.684 113.702 C 331.381 114.193, 331.545 115.249, 332.051 116.048 C 332.556 116.846, 332.976 120.125, 332.985 123.333 C 333.004 130.807, 335.358 130.758, 335.799 123.275 C 336.047 119.063, 336.460 118.113, 338.247 117.646 C 341.579 116.774, 343 118.736, 343 124.206 C 343 127.727, 343.363 129.047, 344.250 128.756 C 346.230 128.104, 346.375 120.222, 344.461 117.300 C 343.037 115.127, 342.256 114.836, 339.005 115.273 C 336.420 115.619, 334.736 115.307, 333.723 114.295 C 332.906 113.477, 331.988 113.210, 331.684 113.702 M 514 113.818 C 514 114.968, 516.884 124.945, 518.171 128.250 C 518.761 129.762, 519.830 131, 520.549 131 C 522.412 131, 529.898 114.565, 528.618 113.285 C 527.649 112.315, 526.576 113.895, 524.060 120 C 522.813 123.025, 521.434 125.882, 520.996 126.350 C 520.558 126.817, 519.459 124.567, 518.554 121.350 C 517.648 118.132, 516.717 114.938, 516.485 114.250 C 516.019 112.869, 514 112.519, 514 113.818 M 291.508 114.988 C 291.121 115.614, 291.603 117.009, 292.580 118.088 C 293.750 119.382, 294.380 121.744, 294.427 125.024 C 294.475 128.298, 294.927 129.999, 295.750 129.999 C 296.558 130, 297 128.465, 297 125.655 C 297 120.880, 298.535 118.892, 303.438 117.318 C 305.053 116.799, 306.553 115.841, 306.771 115.188 C 307.390 113.331, 303.842 113.799, 300.128 116.063 L 296.756 118.119 294.483 115.984 C 292.926 114.521, 291.990 114.208, 291.508 114.988 M 473.850 120.500 C 473.767 124.075, 473.655 127.525, 473.600 128.167 C 473.545 128.808, 474.018 129.506, 474.650 129.717 C 475.878 130.126, 476.748 123.068, 476.187 117.250 C 475.634 111.515, 474.005 113.780, 473.850 120.500 M 505 122 C 505 126.400, 505.398 130, 505.883 130 C 507.195 130, 507.971 126.220, 507.986 119.750 C 507.997 115.299, 507.661 114, 506.500 114 C 505.292 114, 505 115.556, 505 122 M 536.039 116.189 C 533.167 119.272, 533.266 125.373, 536.223 127.443 C 538.996 129.386, 543.999 129.453, 546.557 127.582 C 548.996 125.798, 547.869 124.465, 545.151 125.919 C 542.368 127.408, 539.471 127.272, 538.071 125.586 C 537.101 124.417, 537.852 123.894, 542.398 122.573 C 545.423 121.693, 548.140 120.583, 548.435 120.104 C 548.731 119.626, 548.046 118.057, 546.914 116.618 C 544.250 113.231, 538.988 113.023, 536.039 116.189 M 314.435 117.458 C 310.839 122.947, 313.539 129, 319.584 129 C 328.957 129, 329.077 115.994, 319.711 115.193 C 316.775 114.942, 315.813 115.355, 314.435 117.458 M 436.557 117.223 C 434.448 120.234, 434.584 125.314, 436.829 127.345 C 439.565 129.821, 445.535 129.502, 447.443 126.777 C 451.079 121.587, 447.764 115, 441.518 115 C 439.133 115, 437.647 115.666, 436.557 117.223 M 538 118 C 534.061 121.939, 536.277 122.634, 543.859 119.837 C 545.806 119.119, 546.003 118.708, 544.986 117.483 C 543.272 115.418, 540.367 115.633, 538 118 M 316.473 119.030 C 312.725 123.171, 318.284 129.499, 322.555 125.954 C 324.684 124.187, 324.381 119.274, 322.066 118.035 C 319.349 116.581, 318.563 116.721, 316.473 119.030 M 439.278 118.250 C 435.307 123.382, 438.613 128.621, 444.418 126.393 C 446.311 125.667, 446.576 119.976, 444.800 118.200 C 443.241 116.641, 440.503 116.666, 439.278 118.250 M 355.040 129.452 C 353.505 131.302, 354.021 133.984, 356.172 135.339 C 358.422 136.755, 363 134.665, 363 132.221 C 363 128.333, 357.544 126.435, 355.040 129.452 M 329 258.941 C 329 264.272, 328.767 265, 327.059 265 C 324.281 265, 323.546 266.795, 326.167 267.179 C 328.088 267.460, 328.371 268.138, 328.432 272.597 C 328.511 278.359, 330.142 281, 333.622 281 C 336.346 281, 340.390 277.441, 339.431 275.888 C 339.038 275.252, 338.040 275.653, 336.856 276.925 C 335.792 278.066, 334.545 279, 334.083 279 C 332.160 279, 330.898 275.871, 331.189 271.824 C 331.499 267.508, 331.508 267.499, 335.750 267.193 C 341.415 266.783, 341.212 265, 335.500 265 L 331 265 331 259.559 C 331 256.566, 330.550 253.840, 330 253.500 C 329.375 253.114, 329 255.156, 329 258.941 M 253 254.566 C 253 254.877, 253.543 256.114, 254.207 257.316 C 254.923 258.612, 255.431 263.737, 255.457 269.917 C 255.486 277.074, 255.874 280.458, 256.695 280.732 C 257.500 281, 257.991 279.391, 258.195 275.815 L 258.500 270.500 262.221 270.824 C 265.133 271.078, 266.493 270.598, 268.471 268.620 C 273.587 263.504, 270.250 255, 263.127 255 C 261.077 255, 258.931 255.469, 258.358 256.042 C 257.634 256.766, 256.923 256.612, 256.035 255.542 C 254.777 254.027, 253 253.455, 253 254.566 M 315.336 256.567 C 315.005 257.429, 315.225 258.625, 315.825 259.225 C 317.269 260.669, 320.096 258.414, 319.334 256.427 C 318.602 254.521, 316.087 254.609, 315.336 256.567 M 346.323 256.601 C 345.556 258.599, 347.988 260.255, 349.657 258.870 C 351.170 257.614, 350.295 255, 348.362 255 C 347.578 255, 346.661 255.720, 346.323 256.601 M 259.750 258.080 C 258.548 258.780, 258 260.343, 258 263.071 C 258 266.320, 258.448 267.247, 260.459 268.163 C 266.002 270.689, 270.745 262.794, 266.171 258.655 C 264.091 256.772, 262.275 256.610, 259.750 258.080 M 300.315 263.007 C 299.114 263.491, 297.635 264.813, 297.030 265.944 C 295.399 268.991, 297.229 271.540, 302.489 273.549 C 305.693 274.773, 307 275.833, 307 277.210 C 307 278.917, 306.373 279.115, 301.750 278.870 C 296.011 278.565, 294.739 279.872, 299.500 281.181 C 303.281 282.220, 307.722 281.318, 308.863 279.280 C 310.449 276.445, 308.886 274.219, 303.835 272.120 C 299.685 270.396, 298.908 269.671, 299.177 267.775 C 299.467 265.732, 299.984 265.525, 304.250 265.742 C 309.687 266.020, 310.479 264.711, 305.851 263.098 C 304.119 262.494, 302.656 262.029, 302.601 262.063 C 302.545 262.098, 301.517 262.523, 300.315 263.007 M 356.404 265.750 C 356.701 266.712, 357.868 270.518, 358.999 274.208 C 362.628 286.053, 363.804 285.225, 371.719 265.250 C 371.991 264.563, 371.562 264, 370.766 264 C 369.908 264, 368.169 266.854, 366.500 271 C 364.950 274.850, 363.403 278, 363.062 278 C 362.722 278, 361.632 274.850, 360.640 271 C 359.425 266.284, 358.352 264, 357.351 264 C 356.397 264, 356.058 264.627, 356.404 265.750 M 316 273 C 316 277.400, 316.398 281, 316.883 281 C 318.195 281, 318.971 277.220, 318.986 270.750 C 318.997 266.299, 318.661 265, 317.500 265 C 316.292 265, 316 266.556, 316 273 M 347.667 265.667 C 347.300 266.033, 347 269.671, 347 273.750 C 347 279.237, 347.325 281.059, 348.250 280.753 C 349.069 280.482, 349.601 277.697, 349.792 272.670 C 350.058 265.680, 349.498 263.835, 347.667 265.667 M 378.455 267.455 C 376.949 268.960, 376 271.059, 376 272.882 C 376 278.996, 385.512 282.467, 389.595 277.843 C 391.494 275.693, 391.492 275.689, 389 276.461 C 385.141 277.657, 380.732 277.621, 380.308 276.389 C 380.098 275.777, 382.270 274.427, 385.135 273.389 C 391.210 271.186, 391.940 269.954, 388.865 267.089 C 385.834 264.265, 381.491 264.418, 378.455 267.455 M 279.073 268.635 C 274.965 273.857, 277.814 280, 284.345 280 C 288.485 280, 291 277.419, 291 273.171 C 291 266.460, 283.136 263.469, 279.073 268.635 M 380.571 268.571 C 377.617 271.526, 378.577 272.954, 382.750 271.812 C 387.827 270.423, 388.286 270.049, 386.926 268.411 C 385.380 266.548, 382.523 266.620, 380.571 268.571 M 281.200 269.200 C 280.540 269.860, 280 271.570, 280 273 C 280 278.214, 286.083 280.108, 288.163 275.541 C 290.274 270.908, 284.631 265.769, 281.200 269.200 M 320 409 C 320 414.333, 319.778 415, 318 415 C 316.900 415, 316 415.398, 316 415.883 C 316 416.369, 316.900 417.002, 318 417.290 C 319.688 417.731, 320 418.654, 320 423.206 C 320 429.032, 321.159 431, 324.589 431 C 327.148 431, 331.844 427.517, 330.756 426.426 C 330.347 426.015, 329.083 426.520, 327.948 427.547 C 324.686 430.499, 322.500 428.429, 322.500 422.391 L 322.500 417.500 326.750 417.193 C 332.137 416.803, 332.343 415, 327 415 L 323 415 323 410.582 C 323 405.692, 322.252 403, 320.893 403 C 320.402 403, 320 405.700, 320 409 M 267.734 404.600 C 267.330 405.003, 267 409.308, 267 414.167 C 267 419.025, 266.663 422.994, 266.250 422.988 C 265.837 422.981, 262.932 418.931, 259.792 413.988 C 256.653 409.044, 253.728 405.002, 253.292 405.005 C 252.857 405.008, 252.449 410.408, 252.387 417.005 C 252.298 426.519, 252.556 429, 253.637 429 C 254.674 429, 255 427.086, 255 421 C 255 416.600, 255.339 413, 255.754 413 C 256.168 413, 258.941 416.807, 261.915 421.459 C 264.890 426.112, 267.659 429.711, 268.069 429.458 C 269.263 428.719, 270.277 410.821, 269.331 407.183 C 268.856 405.358, 268.137 404.196, 267.734 404.600 M 382.559 406.250 C 382.995 407.488, 383.525 413.337, 383.738 419.250 C 384.107 429.516, 385.066 432.613, 386.370 427.750 C 387.514 423.480, 387.008 410.956, 385.551 407.468 C 383.934 403.598, 381.239 402.501, 382.559 406.250 M 295.667 413.667 C 294.514 414.820, 294.972 425.385, 296.288 428 C 297.720 430.844, 301.725 431.753, 305.033 429.983 C 306.785 429.045, 307.401 429.167, 308.500 430.669 C 310.352 433.202, 311.580 431.568, 310.162 428.457 C 309.523 427.054, 309 423.002, 309 419.453 C 309 415.904, 308.598 413, 308.107 413 C 306.689 413, 306 415.753, 306 421.421 C 306 425.946, 305.678 426.826, 303.686 427.733 C 299.410 429.682, 298 427.752, 298 419.950 C 298 413.549, 297.400 411.933, 295.667 413.667 M 278.114 416.750 C 276.955 417.712, 275.729 419.933, 275.391 421.684 C 274.180 427.959, 283.052 432.607, 288.557 428.582 C 291.193 426.654, 289.593 425.345, 286.576 426.960 C 284.045 428.314, 279 427.681, 279 426.009 C 279 425.485, 281.475 424.336, 284.500 423.457 C 290.467 421.722, 291.260 420.260, 288 417 C 285.533 414.533, 280.924 414.417, 278.114 416.750 M 337.508 415.988 C 337.121 416.614, 337.603 418.009, 338.580 419.088 C 339.750 420.382, 340.380 422.744, 340.427 426.024 C 340.475 429.298, 340.927 430.999, 341.750 430.999 C 342.558 431, 343 429.465, 343 426.655 C 343 421.880, 344.535 419.892, 349.438 418.318 C 351.053 417.799, 352.553 416.841, 352.771 416.188 C 353.390 414.331, 349.842 414.799, 346.128 417.063 L 342.756 419.119 340.483 416.984 C 338.926 415.521, 337.990 415.208, 337.508 415.988 M 359.655 417.829 C 354.861 423.126, 361.779 430.961, 367.852 427.112 C 368.672 426.593, 370.341 426.822, 372.090 427.695 C 374.888 429.091, 377 428.795, 377 427.007 C 377 426.526, 375.792 425.990, 374.316 425.816 C 372.331 425.582, 371.435 424.756, 370.874 422.643 C 369.229 416.444, 363.236 413.872, 359.655 417.829 M 279.655 418.829 C 277.438 421.278, 277.493 423.410, 279.750 422.537 C 280.712 422.165, 282.738 421.610, 284.250 421.305 C 287.272 420.695, 287.613 420.013, 285.800 418.200 C 284.067 416.467, 281.560 416.724, 279.655 418.829 M 361.032 419.939 C 358.539 424.598, 364.589 428.223, 367.393 423.750 C 368.189 422.480, 368.189 421.520, 367.393 420.250 C 365.773 417.666, 362.339 417.498, 361.032 419.939 M 342.639 554.694 C 342.288 555.046, 342 557.733, 342 560.667 C 342 565.333, 341.750 566, 340 566 C 338.900 566, 338 566.398, 338 566.883 C 338 567.369, 338.900 568.002, 340 568.290 C 341.639 568.718, 342 569.654, 342 573.472 C 342 579.312, 343.394 582, 346.424 582 C 349.109 582, 353.880 578.553, 352.756 577.426 C 352.347 577.015, 351.126 577.481, 350.043 578.461 C 346.720 581.468, 345 579.787, 345 573.531 L 345 568 349 568 C 351.200 568, 353 567.550, 353 567 C 353 566.450, 351.200 566, 349 566 L 345 566 345 560.559 C 345 555.450, 344.105 553.228, 342.639 554.694 M 269 564.500 C 269 569.725, 268.663 573.998, 268.250 573.995 C 267.837 573.993, 264.893 569.943, 261.706 564.995 C 258.519 560.048, 255.594 556.002, 255.206 556.004 C 254.818 556.006, 254.396 561.440, 254.269 568.081 C 254.093 577.274, 254.332 580.057, 255.269 579.748 C 256.046 579.492, 256.685 576.419, 257 571.421 L 257.500 563.500 263.384 572.226 C 266.620 577.025, 269.658 580.711, 270.134 580.417 C 271.373 579.651, 271.243 555, 270 555 C 269.404 555, 269 558.833, 269 564.500 M 360.336 557.567 C 359.502 559.739, 361.618 561.782, 363.133 560.267 C 364.413 558.987, 363.620 556, 362 556 C 361.415 556, 360.667 556.705, 360.336 557.567 M 301 560.378 C 301 561.685, 300.325 563.315, 299.500 564 C 297.612 565.567, 297.557 569.388, 299.402 570.919 C 302.142 573.193, 302.185 576.724, 299.506 579.403 C 298.128 580.781, 297 582.985, 297 584.300 C 297 589.700, 305.010 592.052, 308.961 587.811 C 312.007 584.542, 311.534 581.509, 307.500 578.432 C 304.223 575.933, 302.835 573, 304.929 573 C 306.675 573, 309 569.860, 309 567.501 C 309 566.179, 307.903 564.282, 306.500 563.179 C 305.125 562.097, 304 560.489, 304 559.606 C 304 558.723, 303.325 558, 302.500 558 C 301.587 558, 301 558.931, 301 560.378 M 301.667 564.667 C 300.377 565.956, 301.018 569.793, 302.627 570.410 C 304.247 571.032, 307 569.483, 307 567.949 C 307 566.927, 304.106 564, 303.095 564 C 302.676 564, 302.033 564.300, 301.667 564.667 M 370 565.818 C 370 566.968, 372.884 576.945, 374.171 580.250 C 374.761 581.763, 375.830 583, 376.549 583 C 378.412 583, 385.898 566.565, 384.618 565.285 C 383.649 564.315, 382.576 565.895, 380.060 572 C 378.813 575.025, 377.434 577.882, 376.996 578.350 C 376.558 578.817, 375.459 576.567, 374.554 573.350 C 373.648 570.132, 372.717 566.938, 372.485 566.250 C 372.019 564.869, 370 564.519, 370 565.818 M 279.455 568.455 C 277.949 569.960, 277 572.059, 277 573.882 C 277 579.996, 286.512 583.467, 290.595 578.843 C 292.494 576.693, 292.492 576.689, 290 577.461 C 286.141 578.657, 281.732 578.621, 281.308 577.389 C 281.098 576.777, 283.270 575.427, 286.135 574.389 C 292.210 572.186, 292.940 570.954, 289.865 568.089 C 286.834 565.265, 282.491 565.418, 279.455 568.455 M 360.850 572.500 C 360.767 576.075, 360.655 579.525, 360.600 580.167 C 360.545 580.808, 361.018 581.506, 361.650 581.717 C 362.878 582.126, 363.748 575.068, 363.187 569.250 C 362.634 563.515, 361.005 565.780, 360.850 572.500 M 392.825 567.038 C 390.336 568.490, 388.619 574.420, 389.962 576.928 C 392.122 580.965, 398.754 582.363, 402.557 579.582 C 405.015 577.785, 403.576 576.159, 400.968 577.788 C 398.380 579.404, 395.511 579.320, 394.071 577.586 C 393.101 576.417, 393.860 575.892, 398.449 574.558 C 402.690 573.325, 404 572.492, 404 571.029 C 404 567.150, 396.948 564.632, 392.825 567.038 M 317.745 568.750 C 312.869 574.203, 317.914 580.949, 324.926 578.353 C 326.698 577.697, 328.246 577.778, 329.893 578.614 C 332.304 579.836, 335 579.491, 335 577.959 C 335 577.505, 333.762 576.990, 332.250 576.816 C 330.185 576.579, 329.251 575.728, 328.499 573.402 C 327.948 571.698, 326.880 569.561, 326.126 568.652 C 324.329 566.486, 319.721 566.540, 317.745 568.750 M 281.571 569.571 C 278.617 572.526, 279.577 573.954, 283.750 572.812 C 288.827 571.423, 289.286 571.049, 287.926 569.411 C 286.380 567.548, 283.523 567.620, 281.571 569.571 M 393.655 569.829 C 391.438 572.278, 391.493 574.410, 393.750 573.537 C 394.712 573.165, 396.738 572.610, 398.250 572.305 C 401.257 571.698, 401.929 569.570, 399.418 568.607 C 396.807 567.605, 395.397 567.904, 393.655 569.829 M 318.832 571.470 C 316.939 575.623, 321.598 579.002, 324.800 575.800 C 326.430 574.170, 326.308 572.450, 324.429 570.571 C 322.164 568.307, 320.124 568.635, 318.832 571.470 M 301.243 581.157 C 299.041 583.359, 299.739 586.896, 302.513 587.593 C 305.797 588.417, 308.184 586.382, 307.801 583.086 C 307.578 581.171, 306.849 580.424, 304.993 580.207 C 303.614 580.046, 301.927 580.473, 301.243 581.157 M 267.639 705.694 C 267.288 706.046, 267 708.733, 267 711.667 C 267 716.333, 266.750 717, 265 717 C 263.900 717, 263 717.398, 263 717.883 C 263 718.369, 263.900 719.002, 265 719.290 C 266.639 719.718, 267 720.654, 267 724.472 C 267 730.312, 268.394 733, 271.424 733 C 274.109 733, 278.880 729.553, 277.756 728.426 C 277.347 728.015, 276.126 728.481, 275.043 729.461 C 271.720 732.468, 270 730.787, 270 724.531 L 270 719 274 719 C 276.200 719, 278 718.550, 278 718 C 278 717.450, 276.200 717, 274 717 L 270 717 270 711.559 C 270 706.450, 269.105 704.228, 267.639 705.694 M 493.639 705.694 C 493.288 706.046, 493 708.733, 493 711.667 C 493 716.333, 492.750 717, 491 717 C 489.900 717, 489 717.398, 489 717.883 C 489 718.369, 489.900 719.002, 491 719.290 C 492.639 719.718, 493 720.654, 493 724.472 C 493 730.312, 494.394 733, 497.424 733 C 500.109 733, 504.880 729.553, 503.756 728.426 C 503.347 728.015, 502.126 728.481, 501.043 729.461 C 497.720 732.468, 496 730.787, 496 724.531 L 496 719 500 719 C 502.200 719, 504 718.550, 504 718 C 504 717.450, 502.200 717, 500 717 L 496 717 496 711.559 C 496 706.450, 495.105 704.228, 493.639 705.694 M 248.235 707.015 C 245.538 708.124, 243.559 712.706, 244.693 715.213 C 245.137 716.194, 247.750 718.463, 250.500 720.256 C 254.136 722.625, 255.585 724.244, 255.810 726.190 C 256.232 729.832, 253.075 731.571, 248.767 730.069 C 245.049 728.772, 243.754 729.616, 246.443 731.582 C 251.038 734.942, 259.013 732.151, 258.985 727.193 C 258.964 723.525, 258.102 722.409, 252.421 718.692 C 247.306 715.345, 246.007 712.901, 248.040 710.452 C 249.508 708.683, 252.361 708.584, 254.968 710.212 C 257.388 711.724, 258.891 710.451, 256.940 708.542 C 254.958 706.601, 250.952 705.898, 248.235 707.015 M 364.501 707.750 C 366.642 712.985, 367.179 717.221, 366.596 724.250 C 366.052 730.807, 366.188 732, 367.477 732 C 369.722 732, 369.694 711.435, 367.443 708.223 C 365.586 705.570, 363.472 705.231, 364.501 707.750 M 420 715.500 C 420 720.725, 419.663 724.998, 419.250 724.995 C 418.837 724.993, 415.893 720.943, 412.706 715.995 C 409.519 711.048, 406.594 707.002, 406.206 707.004 C 405.818 707.006, 405.396 712.440, 405.269 719.081 C 405.093 728.274, 405.332 731.057, 406.269 730.748 C 407.046 730.492, 407.685 727.419, 408 722.421 L 408.500 714.500 414.384 723.226 C 417.620 728.025, 420.658 731.711, 421.134 731.417 C 422.373 730.651, 422.243 706, 421 706 C 420.404 706, 420 709.833, 420 715.500 M 511.336 708.567 C 510.502 710.739, 512.618 712.782, 514.133 711.267 C 515.413 709.987, 514.620 707, 513 707 C 512.415 707, 511.667 707.705, 511.336 708.567 M 348.968 710.750 C 348.951 711.712, 348.276 713.374, 347.468 714.441 C 345.633 716.868, 345.559 721.638, 347.341 722.700 C 349.942 724.252, 349.978 727.931, 347.416 730.493 C 343.094 734.815, 345.332 741, 351.218 741 C 358.110 741, 360.833 732.519, 355.006 729.203 C 351.353 727.124, 351.216 725.404, 354.500 722.821 C 355.928 721.698, 357 719.824, 357 718.450 C 357 716.989, 356.019 715.404, 354.500 714.408 C 353.125 713.507, 352 711.922, 352 710.885 C 352 708.508, 349.011 708.375, 348.968 710.750 M 452 711.378 C 452 712.685, 451.325 714.315, 450.500 715 C 448.612 716.567, 448.557 720.388, 450.402 721.919 C 453.142 724.193, 453.185 727.724, 450.506 730.403 C 449.128 731.781, 448 733.985, 448 735.300 C 448 740.700, 456.010 743.052, 459.961 738.811 C 463.007 735.542, 462.534 732.509, 458.500 729.432 C 455.223 726.933, 453.835 724, 455.929 724 C 457.675 724, 460 720.860, 460 718.501 C 460 717.179, 458.903 715.282, 457.500 714.179 C 456.125 713.097, 455 711.489, 455 710.606 C 455 709.723, 454.325 709, 453.500 709 C 452.587 709, 452 709.931, 452 711.378 M 385 720.060 L 385 727.121 381.250 726.810 L 377.500 726.500 377.200 720.750 C 376.778 712.659, 374 713.421, 374 721.627 C 374 726.119, 378.008 730.423, 381.560 729.744 C 383.562 729.361, 384 729.681, 384 731.528 C 384 732.766, 383.129 734.841, 382.065 736.139 C 380.403 738.167, 379.845 738.326, 378.111 737.270 C 377.001 736.594, 375.852 736.431, 375.557 736.907 C 374.641 738.389, 377.744 740.160, 380.664 739.822 C 382.956 739.557, 383.753 738.680, 385.163 734.869 C 386.105 732.322, 387.191 726.359, 387.576 721.619 C 388.192 714.018, 388.082 713, 386.638 713 C 385.275 713, 385 714.188, 385 720.060 M 349.037 716.931 C 348.254 718.395, 348.394 719.251, 349.618 720.475 C 351.692 722.549, 353.409 721.963, 353.837 719.035 C 354.385 715.291, 350.764 713.704, 349.037 716.931 M 452.667 715.667 C 451.377 716.956, 452.018 720.793, 453.627 721.410 C 455.247 722.032, 458 720.483, 458 718.949 C 458 717.927, 455.106 715, 454.095 715 C 453.676 715, 453.033 715.300, 452.667 715.667 M 324.707 716.627 C 324.362 716.972, 324.737 718.524, 325.540 720.077 C 326.343 721.630, 327 724.948, 327 727.450 C 327 729.953, 327.450 732, 328 732 C 328.550 732, 329 729.577, 329 726.617 C 329 721.992, 329.295 721.156, 331.096 720.685 C 335.013 719.661, 336 720.869, 336 726.690 C 336 730.624, 336.352 732.051, 337.250 731.756 C 339.230 731.104, 339.375 723.222, 337.461 720.300 C 336.018 718.098, 335.277 717.834, 331.835 718.295 C 328.966 718.680, 327.721 718.436, 327.328 717.414 C 326.751 715.908, 325.731 715.602, 324.707 716.627 M 522.617 724.201 C 523.928 728.711, 525.432 732.832, 525.958 733.358 C 527.577 734.977, 529.691 732.293, 532.935 724.501 C 536.354 716.289, 536.423 716, 534.970 716 C 534.403 716, 532.433 719.263, 530.591 723.250 C 528.476 727.830, 527.031 729.948, 526.668 729 C 526.351 728.175, 525.365 724.913, 524.475 721.750 C 523.559 718.492, 522.289 716, 521.545 716 C 520.549 716, 520.807 717.976, 522.617 724.201 M 284.662 717.737 C 284.361 718.225, 284.985 719.947, 286.050 721.562 C 287.197 723.301, 287.990 726.234, 287.993 728.750 C 287.997 731.087, 288.401 733, 288.892 733 C 290.105 733, 291.048 728.899, 290.402 726.431 C 289.788 724.083, 292.145 721.696, 296.438 720.318 C 298.053 719.799, 299.553 718.841, 299.771 718.188 C 300.390 716.331, 296.842 716.799, 293.128 719.063 L 289.756 721.119 287.483 718.984 C 286.234 717.810, 284.964 717.249, 284.662 717.737 M 430.455 719.455 C 428.949 720.960, 428 723.059, 428 724.882 C 428 730.996, 437.512 734.467, 441.595 729.843 C 443.494 727.693, 443.492 727.689, 441 728.461 C 437.141 729.657, 432.732 729.621, 432.308 728.389 C 432.098 727.777, 434.270 726.427, 437.135 725.389 C 443.210 723.186, 443.940 721.954, 440.865 719.089 C 437.834 716.265, 433.491 716.418, 430.455 719.455 M 511.850 723.500 C 511.767 727.075, 511.655 730.525, 511.600 731.167 C 511.545 731.808, 512.018 732.506, 512.650 732.717 C 513.878 733.126, 514.748 726.068, 514.187 720.250 C 513.634 714.515, 512.005 716.780, 511.850 723.500 M 543.825 718.038 C 541.336 719.490, 539.619 725.420, 540.962 727.928 C 543.122 731.965, 549.754 733.363, 553.557 730.582 C 556.015 728.785, 554.576 727.159, 551.968 728.788 C 549.380 730.404, 546.511 730.320, 545.071 728.586 C 544.101 727.417, 544.860 726.892, 549.449 725.558 C 553.690 724.325, 555 723.492, 555 722.029 C 555 718.150, 547.948 715.632, 543.825 718.038 M 307.557 720.223 C 305.448 723.234, 305.584 728.314, 307.829 730.345 C 310.565 732.821, 316.535 732.502, 318.443 729.777 C 322.079 724.587, 318.764 718, 312.518 718 C 310.133 718, 308.647 718.666, 307.557 720.223 M 468.059 719.941 C 465.457 722.543, 465.436 725.436, 468 728 C 470.133 730.133, 474.927 730.673, 476.629 728.971 C 477.335 728.265, 478.537 728.397, 480.454 729.392 C 483.194 730.814, 486 730.595, 486 728.959 C 486 728.505, 484.808 727.990, 483.351 727.816 C 481.894 727.642, 480.392 726.825, 480.012 726 C 476.781 718.968, 476.372 718.494, 473.278 718.191 C 471.120 717.980, 469.465 718.535, 468.059 719.941 M 432.571 720.571 C 429.617 723.526, 430.577 724.954, 434.750 723.812 C 439.827 722.423, 440.286 722.049, 438.926 720.411 C 437.380 718.548, 434.523 718.620, 432.571 720.571 M 544.655 720.829 C 542.438 723.278, 542.493 725.410, 544.750 724.537 C 545.712 724.165, 547.737 723.610, 549.250 723.305 C 552.257 722.698, 552.929 720.570, 550.418 719.607 C 547.807 718.605, 546.397 718.904, 544.655 720.829 M 310.278 721.250 C 306.307 726.382, 309.613 731.621, 315.418 729.393 C 317.311 728.667, 317.576 722.976, 315.800 721.200 C 314.241 719.641, 311.503 719.666, 310.278 721.250 M 470.011 721.487 C 469.289 722.356, 469.045 724.044, 469.423 725.550 C 469.948 727.643, 470.579 728.067, 472.785 727.813 C 474.945 727.564, 475.567 726.909, 475.830 724.609 C 476.306 720.438, 472.552 718.425, 470.011 721.487 M 348.086 733.250 C 346.944 736.275, 348.520 739, 351.413 739 C 354.557 739, 356.372 736.617, 355.593 733.513 C 354.729 730.072, 349.357 729.884, 348.086 733.250 M 452.243 732.157 C 450.041 734.359, 450.739 737.896, 453.513 738.593 C 456.797 739.417, 459.184 737.382, 458.801 734.086 C 458.578 732.171, 457.849 731.424, 455.993 731.207 C 454.614 731.046, 452.927 731.473, 452.243 732.157" stroke="none" fill="#000000" fill-rule="evenodd"/><path d="M 100.167 676.456 C 80.313 683.830, 67.600 705.368, 70.922 725.999 C 74.468 748.017, 93.405 763.957, 116.056 763.989 C 142.945 764.028, 164.380 738.714, 160.078 712.001 C 157.279 694.624, 144.812 680.794, 127.099 675.418 C 119.832 673.212, 107.637 673.682, 100.167 676.456" stroke="none" fill="#ffb3ba" fill-rule="evenodd"/><path d="M 100.167 525.456 C 80.313 532.830, 67.600 554.368, 70.922 574.999 C 74.468 597.017, 93.405 612.957, 116.056 612.989 C 142.945 613.028, 164.380 587.714, 160.078 561.001 C 157.279 543.624, 144.812 529.794, 127.099 524.418 C 119.832 522.212, 107.637 522.682, 100.167 525.456" stroke="none" fill="#ffdfba" fill-rule="evenodd"/><path d="M 412.310 117.500 C 412.315 120.800, 412.502 122.029, 412.725 120.232 C 412.947 118.435, 412.943 115.735, 412.715 114.232 C 412.486 112.729, 412.304 114.200, 412.310 117.500 M 508.272 119 C 508.272 121.475, 508.467 122.487, 508.706 121.250 C 508.944 120.013, 508.944 117.987, 508.706 116.750 C 508.467 115.513, 508.272 116.525, 508.272 119 M 319.272 270 C 319.272 272.475, 319.467 273.488, 319.706 272.250 C 319.944 271.012, 319.944 268.988, 319.706 267.750 C 319.467 266.512, 319.272 267.525, 319.272 270 M 100.167 374.456 C 80.313 381.830, 67.600 403.368, 70.922 423.999 C 74.468 446.017, 93.405 461.957, 116.056 461.989 C 142.945 462.028, 164.380 436.714, 160.078 410.001 C 157.279 392.624, 144.812 378.794, 127.099 373.418 C 119.832 371.212, 107.637 371.682, 100.167 374.456" stroke="none" fill="#bae1ff" fill-rule="evenodd"/><path d="M 105.221 222.523 C 92.657 225.251, 81.447 234.276, 75.381 246.547 C 64.086 269.392, 72.810 295.378, 95.547 306.619 C 118.392 317.914, 144.378 309.190, 155.619 286.453 C 166.904 263.629, 158.180 237.596, 135.500 226.413 C 128.961 223.188, 119.785 220.915, 114 221.085 C 112.625 221.126, 108.675 221.773, 105.221 222.523" stroke="none" fill="#b2fba5" fill-rule="evenodd"/><path d="M 105.221 71.523 C 92.657 74.251, 81.447 83.276, 75.381 95.547 C 64.086 118.392, 72.810 144.378, 95.547 155.619 C 118.392 166.914, 144.378 158.190, 155.619 135.453 C 166.904 112.629, 158.180 86.596, 135.500 75.413 C 128.961 72.188, 119.785 69.915, 114 70.085 C 112.625 70.126, 108.675 70.773, 105.221 71.523 M 273.150 109.177 C 273.045 111.756, 272.477 112.990, 271.250 113.311 C 269.610 113.739, 269.612 113.775, 271.281 113.884 C 273.449 114.025, 274.291 112.113, 273.724 108.334 C 273.360 105.903, 273.278 106.023, 273.150 109.177 M 416.667 107.667 C 415.753 108.581, 415.822 115.772, 416.750 116.345 C 417.163 116.600, 417.500 114.602, 417.500 111.905 C 417.500 109.207, 417.462 107, 417.417 107 C 417.371 107, 417.033 107.300, 416.667 107.667 M 489.404 111 C 489.487 113.154, 489.985 113.512, 493 113.589 C 496.358 113.675, 496.371 113.663, 493.311 113.283 C 490.984 112.994, 490.012 112.294, 489.714 110.693 C 489.379 108.888, 489.324 108.942, 489.404 111 M 376.343 117.500 C 376.346 121.900, 376.522 123.576, 376.733 121.224 C 376.945 118.872, 376.942 115.272, 376.727 113.224 C 376.512 111.176, 376.339 113.100, 376.343 117.500 M 280.833 113.736 C 284.409 114.056, 285.054 114.418, 284.524 115.812 C 284.034 117.099, 284.160 117.224, 285.054 116.337 C 287.023 114.383, 285.103 112.991, 280.691 113.175 L 276.500 113.349 280.833 113.736 M 473.394 114.416 C 473.095 115.194, 473.042 117.107, 473.276 118.666 C 473.641 121.104, 473.721 120.987, 473.850 117.833 C 473.933 115.817, 474.563 113.940, 475.250 113.662 C 476.229 113.267, 476.222 113.141, 475.219 113.079 C 474.514 113.036, 473.693 113.637, 473.394 114.416 M 504.412 114.369 C 504.123 115.122, 504.054 118.160, 504.258 121.119 L 504.630 126.500 504.815 120.323 C 504.963 115.378, 505.349 114.055, 506.750 113.689 C 508.390 113.261, 508.388 113.225, 506.719 113.116 C 505.739 113.052, 504.701 113.616, 504.412 114.369 M 380.272 118 C 380.272 120.475, 380.467 121.487, 380.706 120.250 C 380.944 119.013, 380.944 116.987, 380.706 115.750 C 380.467 114.513, 380.272 115.525, 380.272 118 M 336.286 123.500 C 336.294 126.250, 336.488 127.256, 336.718 125.736 C 336.947 124.216, 336.941 121.966, 336.704 120.736 C 336.467 119.506, 336.279 120.750, 336.286 123.500 M 342.116 124.191 C 342.052 126.771, 342.356 129.102, 342.791 129.371 C 343.226 129.640, 343.425 128.204, 343.233 126.180 C 342.647 119.996, 342.238 119.267, 342.116 124.191 M 416.286 124.500 C 416.294 127.250, 416.488 128.256, 416.718 126.736 C 416.947 125.216, 416.941 122.966, 416.704 121.736 C 416.467 120.506, 416.279 121.750, 416.286 124.500 M 412 126.441 C 412 128.334, 412.346 130.096, 412.768 130.357 C 413.191 130.618, 413.369 129.070, 413.163 126.916 C 412.702 122.080, 412 121.794, 412 126.441 M 315.412 265.369 C 315.123 266.122, 315.054 269.160, 315.258 272.119 L 315.630 277.500 315.815 271.323 C 315.963 266.378, 316.349 265.055, 317.750 264.689 C 319.390 264.261, 319.388 264.225, 317.719 264.116 C 316.739 264.052, 315.701 264.616, 315.412 265.369 M 333.750 264.706 C 334.988 264.944, 337.012 264.944, 338.250 264.706 C 339.488 264.467, 338.475 264.272, 336 264.272 C 333.525 264.272, 332.512 264.467, 333.750 264.706 M 348.204 264.622 C 349.512 265.011, 349.996 266.565, 350.288 271.314 L 350.669 277.500 350.584 271.010 C 350.510 265.286, 350.264 264.496, 348.500 264.317 C 347.030 264.169, 346.952 264.249, 348.204 264.622 M 331.272 272 C 331.272 274.475, 331.467 275.488, 331.706 274.250 C 331.944 273.012, 331.944 270.988, 331.706 269.750 C 331.467 268.512, 331.272 269.525, 331.272 272 M 265.821 413.002 C 265.644 417.954, 265.837 422.004, 266.250 422.002 C 266.663 422.001, 267 417.950, 267 413 C 267 408.050, 266.807 404, 266.571 404 C 266.335 404, 265.998 408.051, 265.821 413.002 M 319.150 410.177 C 319.045 412.756, 318.477 413.990, 317.250 414.311 C 315.610 414.739, 315.612 414.775, 317.281 414.884 C 319.449 415.025, 320.291 413.113, 319.724 409.334 C 319.360 406.903, 319.278 407.023, 319.150 410.177 M 383.360 419 C 383.360 424.225, 383.529 426.363, 383.735 423.750 C 383.941 421.137, 383.941 416.863, 383.735 414.250 C 383.529 411.637, 383.360 413.775, 383.360 419 M 298.328 419.500 C 298.333 423.350, 298.513 424.802, 298.730 422.728 C 298.946 420.653, 298.943 417.503, 298.722 415.728 C 298.501 413.952, 298.324 415.650, 298.328 419.500 M 326.833 414.736 C 330.409 415.056, 331.054 415.418, 330.524 416.812 C 330.034 418.099, 330.160 418.224, 331.054 417.337 C 333.023 415.383, 331.103 413.991, 326.691 414.175 L 322.500 414.349 326.833 414.736 M 309.310 420.500 C 309.315 423.800, 309.502 425.029, 309.725 423.232 C 309.947 421.435, 309.943 418.735, 309.715 417.232 C 309.486 415.729, 309.304 417.200, 309.310 420.500 M 341.286 559.500 C 341.294 562.250, 341.488 563.256, 341.718 561.736 C 341.947 560.216, 341.941 557.966, 341.704 556.736 C 341.467 555.506, 341.279 556.750, 341.286 559.500 M 345.272 560 C 345.272 562.475, 345.467 563.487, 345.706 562.250 C 345.944 561.013, 345.944 558.987, 345.706 557.750 C 345.467 556.513, 345.272 557.525, 345.272 560 M 257.116 570.750 C 257.239 576.853, 257.681 576.255, 258.224 569.250 C 258.405 566.913, 258.203 565, 257.776 565 C 257.349 565, 257.052 567.587, 257.116 570.750 M 348.833 565.736 C 352.409 566.056, 353.054 566.418, 352.524 567.812 C 352.034 569.099, 352.160 569.224, 353.054 568.337 C 355.023 566.383, 353.103 564.991, 348.691 565.175 L 344.500 565.349 348.833 565.736 M 360.394 566.416 C 360.095 567.194, 360.042 569.107, 360.276 570.666 C 360.641 573.104, 360.721 572.987, 360.850 569.833 C 360.933 567.817, 361.563 565.940, 362.250 565.662 C 363.229 565.267, 363.222 565.141, 362.219 565.079 C 361.514 565.036, 360.693 565.637, 360.394 566.416 M 341.286 573.500 C 341.294 576.250, 341.488 577.256, 341.718 575.736 C 341.947 574.216, 341.941 571.966, 341.704 570.736 C 341.467 569.506, 341.279 570.750, 341.286 573.500 M 266.286 710.500 C 266.294 713.250, 266.488 714.256, 266.718 712.736 C 266.947 711.216, 266.941 708.966, 266.704 707.736 C 266.467 706.506, 266.279 707.750, 266.286 710.500 M 492.286 710.500 C 492.294 713.250, 492.488 714.256, 492.718 712.736 C 492.947 711.216, 492.941 708.966, 492.704 707.736 C 492.467 706.506, 492.279 707.750, 492.286 710.500 M 270.272 711 C 270.272 713.475, 270.467 714.487, 270.706 713.250 C 270.944 712.013, 270.944 709.987, 270.706 708.750 C 270.467 707.513, 270.272 708.525, 270.272 711 M 496.272 711 C 496.272 713.475, 496.467 714.487, 496.706 713.250 C 496.944 712.013, 496.944 709.987, 496.706 708.750 C 496.467 707.513, 496.272 708.525, 496.272 711 M 384.189 719.167 C 384.069 723.410, 383.546 726.017, 382.750 726.338 C 381.771 726.733, 381.778 726.859, 382.781 726.921 C 384.673 727.038, 385.150 724.961, 384.743 718.388 L 384.378 712.500 384.189 719.167 M 273.833 716.736 C 277.409 717.056, 278.054 717.418, 277.524 718.812 C 277.034 720.099, 277.160 720.224, 278.054 719.337 C 280.023 717.383, 278.103 715.991, 273.691 716.175 L 269.500 716.349 273.833 716.736 M 408.116 721.750 C 408.239 727.853, 408.681 727.255, 409.224 720.250 C 409.405 717.913, 409.203 716, 408.776 716 C 408.349 716, 408.052 718.587, 408.116 721.750 M 499.833 716.736 C 503.409 717.056, 504.054 717.418, 503.524 718.812 C 503.034 720.099, 503.160 720.224, 504.054 719.337 C 506.023 717.383, 504.103 715.991, 499.691 716.175 L 495.500 716.349 499.833 716.736 M 511.394 717.416 C 511.095 718.194, 511.042 720.107, 511.276 721.666 C 511.641 724.104, 511.721 723.987, 511.850 720.833 C 511.933 718.817, 512.563 716.940, 513.250 716.662 C 514.229 716.267, 514.222 716.141, 513.219 716.079 C 512.514 716.036, 511.693 716.637, 511.394 717.416 M 266.286 724.500 C 266.294 727.250, 266.488 728.256, 266.718 726.736 C 266.947 725.216, 266.941 722.966, 266.704 721.736 C 266.467 720.506, 266.279 721.750, 266.286 724.500 M 492.286 724.500 C 492.294 727.250, 492.488 728.256, 492.718 726.736 C 492.947 725.216, 492.941 722.966, 492.704 721.736 C 492.467 720.506, 492.279 721.750, 492.286 724.500 M 339.286 726.500 C 339.294 729.250, 339.488 730.256, 339.718 728.736 C 339.947 727.216, 339.941 724.966, 339.704 723.736 C 339.467 722.506, 339.279 723.750, 339.286 726.500 M 369.300 727 C 369.300 730.025, 369.487 731.263, 369.716 729.750 C 369.945 728.237, 369.945 725.763, 369.716 724.250 C 369.487 722.737, 369.300 723.975, 369.300 727" stroke="none" fill="#8dc682" fill-rule="evenodd"/><path d="M 391.416 110.358 C 391.094 111.197, 391.042 112.697, 391.299 113.692 C 391.606 114.875, 391.808 114.549, 391.884 112.750 C 392.098 107.674, 393.901 109.937, 394.274 115.750 L 394.643 121.500 394.571 115.579 C 394.526 111.785, 394.051 109.511, 393.251 109.246 C 392.563 109.019, 391.738 109.520, 391.416 110.358 M 269.015 114.844 C 269.007 115.583, 269.877 116.417, 270.949 116.697 C 272.453 117.090, 272.984 118.269, 273.269 121.853 L 273.640 126.500 273.820 121.719 C 273.961 117.972, 273.621 116.797, 272.250 116.292 C 271.288 115.936, 270.169 115.163, 269.765 114.573 C 269.284 113.870, 269.025 113.963, 269.015 114.844 M 497 114.833 C 497 115.486, 495.349 116.070, 493.250 116.160 L 489.500 116.320 492.877 116.733 C 496.175 117.136, 499.046 115.713, 497.683 114.350 C 497.308 113.974, 497 114.192, 497 114.833 M 276.402 117.395 C 276.108 118.162, 276.046 120.524, 276.265 122.645 C 276.649 126.354, 276.670 126.323, 276.832 121.810 C 276.998 117.164, 277.034 117.117, 280.750 116.728 L 284.500 116.336 280.719 116.168 C 278.282 116.060, 276.747 116.496, 276.402 117.395 M 542 116.938 C 543.375 117.345, 544.376 118.233, 544.225 118.913 C 544.074 119.593, 544.433 119.850, 545.024 119.485 C 546.664 118.472, 544.165 115.981, 541.628 116.100 C 539.734 116.188, 539.775 116.281, 542 116.938 M 390.921 120.249 C 390.623 122.399, 390.776 123.624, 391.279 123.121 C 391.762 122.638, 391.995 120.951, 391.798 119.372 C 391.468 116.728, 391.399 116.798, 390.921 120.249 M 476.252 124.500 C 476.263 126.700, 476.468 127.482, 476.707 126.238 C 476.946 124.994, 476.937 123.194, 476.687 122.238 C 476.437 121.282, 476.241 122.300, 476.252 124.500 M 282 125.500 C 281.315 126.325, 280.023 127.036, 279.128 127.079 C 278.106 127.128, 277.962 127.345, 278.740 127.659 C 279.423 127.935, 281.171 127.224, 282.625 126.080 C 284.080 124.936, 284.814 124, 284.257 124 C 283.700 124, 282.685 124.675, 282 125.500 M 355.200 129.200 C 353.507 130.893, 353.711 133.516, 355.661 135.128 C 357.181 136.384, 357.203 136.309, 355.920 134.250 C 354.785 132.426, 354.756 131.621, 355.768 130 C 357.182 127.735, 356.967 127.433, 355.200 129.200 M 330.986 259.296 L 331.472 265.500 331.793 260.107 C 331.970 257.141, 331.751 254.349, 331.307 253.903 C 330.863 253.457, 330.719 255.884, 330.986 259.296 M 328.310 259.500 C 328.315 262.800, 328.502 264.029, 328.725 262.232 C 328.947 260.435, 328.943 257.735, 328.715 256.232 C 328.486 254.729, 328.304 256.200, 328.310 259.500 M 255.286 268.500 C 255.294 271.250, 255.488 272.256, 255.718 270.736 C 255.947 269.216, 255.941 266.966, 255.704 265.736 C 255.467 264.506, 255.279 265.750, 255.286 268.500 M 333.762 267.707 C 335.006 267.946, 336.806 267.937, 337.762 267.687 C 338.718 267.437, 337.700 267.241, 335.500 267.252 C 333.300 267.263, 332.518 267.468, 333.762 267.707 M 258.398 271.405 C 258.102 272.177, 258.016 274.315, 258.209 276.155 C 258.515 279.088, 258.617 278.915, 259.036 274.750 C 259.527 269.879, 259.346 268.934, 258.398 271.405 M 255.116 418.250 C 255.237 423.705, 255.630 423.181, 256.242 416.750 C 256.438 414.688, 256.239 413, 255.799 413 C 255.360 413, 255.052 415.363, 255.116 418.250 M 252.252 418.500 C 252.263 420.700, 252.468 421.482, 252.707 420.238 C 252.946 418.994, 252.937 417.194, 252.687 416.238 C 252.437 415.282, 252.241 416.300, 252.252 418.500 M 315.015 415.844 C 315.007 416.583, 315.877 417.417, 316.949 417.697 C 318.453 418.090, 318.984 419.269, 319.269 422.853 L 319.640 427.500 319.820 422.719 C 319.961 418.972, 319.621 417.797, 318.250 417.292 C 317.288 416.936, 316.169 416.163, 315.765 415.573 C 315.284 414.870, 315.025 414.963, 315.015 415.844 M 322.402 418.395 C 322.108 419.162, 322.046 421.524, 322.265 423.645 C 322.649 427.354, 322.670 427.323, 322.832 422.810 C 322.998 418.164, 323.034 418.117, 326.750 417.728 L 330.500 417.336 326.719 417.168 C 324.282 417.060, 322.747 417.496, 322.402 418.395 M 269.272 424 C 269.272 426.475, 269.467 427.488, 269.706 426.250 C 269.944 425.012, 269.944 422.988, 269.706 421.750 C 269.467 420.512, 269.272 421.525, 269.272 424 M 328 426.500 C 327.315 427.325, 326.023 428.036, 325.128 428.079 C 324.106 428.128, 323.962 428.345, 324.740 428.659 C 325.423 428.935, 327.171 428.224, 328.625 427.080 C 330.080 425.936, 330.814 425, 330.257 425 C 329.700 425, 328.685 425.675, 328 426.500 M 267.821 565.002 C 267.644 569.954, 267.837 574.004, 268.250 574.002 C 268.663 574.001, 269 569.950, 269 565 C 269 560.050, 268.807 556, 268.571 556 C 268.335 556, 267.998 560.051, 267.821 565.002 M 271.360 565 C 271.360 570.225, 271.529 572.362, 271.735 569.750 C 271.941 567.138, 271.941 562.862, 271.735 560.250 C 271.529 557.638, 271.360 559.775, 271.360 565 M 254.300 564 C 254.300 567.025, 254.487 568.263, 254.716 566.750 C 254.945 565.237, 254.945 562.763, 254.716 561.250 C 254.487 559.737, 254.300 560.975, 254.300 564 M 346.762 568.707 C 348.006 568.946, 349.806 568.937, 350.762 568.687 C 351.718 568.437, 350.700 568.241, 348.500 568.252 C 346.300 568.263, 345.518 568.468, 346.762 568.707 M 393.655 569.829 C 391.823 571.853, 391.469 574, 392.969 574 C 393.501 574, 393.696 573.372, 393.401 572.604 C 393.106 571.833, 393.891 570.489, 395.155 569.604 C 396.415 568.722, 396.965 568, 396.377 568 C 395.790 568, 394.565 568.823, 393.655 569.829 M 363.252 576.500 C 363.263 578.700, 363.468 579.482, 363.707 578.238 C 363.946 576.994, 363.937 575.194, 363.687 574.238 C 363.437 573.282, 363.241 574.300, 363.252 576.500 M 349.942 577.570 C 349.226 578.433, 347.820 578.925, 346.818 578.663 C 345.817 578.401, 345.249 578.595, 345.558 579.093 C 346.418 580.485, 348.612 580.172, 350.038 578.454 C 350.743 577.604, 351.947 577.149, 352.712 577.443 C 353.478 577.737, 353.829 577.532, 353.493 576.989 C 352.618 575.573, 351.439 575.766, 349.942 577.570 M 418.821 716.002 C 418.644 720.954, 418.837 725.004, 419.250 725.002 C 419.663 725.001, 420 720.950, 420 716 C 420 711.050, 419.807 707, 419.571 707 C 419.335 707, 418.998 711.051, 418.821 716.002 M 422.360 716 C 422.360 721.225, 422.529 723.362, 422.735 720.750 C 422.941 718.138, 422.941 713.862, 422.735 711.250 C 422.529 708.638, 422.360 710.775, 422.360 716 M 405.300 715 C 405.300 718.025, 405.487 719.263, 405.716 717.750 C 405.945 716.237, 405.945 713.763, 405.716 712.250 C 405.487 710.737, 405.300 711.975, 405.300 715 M 366.320 720 C 366.320 723.575, 366.502 725.038, 366.723 723.250 C 366.945 721.462, 366.945 718.538, 366.723 716.750 C 366.502 714.962, 366.320 716.425, 366.320 720 M 271.762 719.707 C 273.006 719.946, 274.806 719.937, 275.762 719.687 C 276.718 719.437, 275.700 719.241, 273.500 719.252 C 271.300 719.263, 270.518 719.468, 271.762 719.707 M 497.762 719.707 C 499.006 719.946, 500.806 719.937, 501.762 719.687 C 502.718 719.437, 501.700 719.241, 499.500 719.252 C 497.300 719.263, 496.518 719.468, 497.762 719.707 M 544.655 720.829 C 542.823 722.853, 542.469 725, 543.969 725 C 544.501 725, 544.696 724.372, 544.401 723.604 C 544.106 722.833, 544.891 721.489, 546.155 720.604 C 547.415 719.722, 547.965 719, 547.377 719 C 546.790 719, 545.565 719.823, 544.655 720.829 M 329.286 725.500 C 329.294 728.250, 329.488 729.256, 329.718 727.736 C 329.947 726.216, 329.941 723.966, 329.704 722.736 C 329.467 721.506, 329.279 722.750, 329.286 725.500 M 326.116 726.691 C 326.052 729.546, 326.346 732.096, 326.768 732.357 C 327.191 732.618, 327.392 730.957, 327.216 728.666 C 326.696 721.937, 326.241 721.118, 326.116 726.691 M 514.252 727.500 C 514.263 729.700, 514.468 730.482, 514.707 729.238 C 514.946 727.994, 514.937 726.194, 514.687 725.238 C 514.437 724.282, 514.241 725.300, 514.252 727.500 M 274.942 728.570 C 274.226 729.433, 272.820 729.925, 271.818 729.663 C 270.817 729.401, 270.249 729.595, 270.558 730.093 C 271.418 731.485, 273.612 731.172, 275.038 729.454 C 275.743 728.604, 276.947 728.149, 277.712 728.443 C 278.478 728.737, 278.829 728.532, 278.493 727.989 C 277.618 726.573, 276.439 726.766, 274.942 728.570 M 500.942 728.570 C 500.226 729.433, 498.820 729.925, 497.818 729.663 C 496.817 729.401, 496.249 729.595, 496.558 730.093 C 497.418 731.485, 499.612 731.172, 501.038 729.454 C 501.743 728.604, 502.947 728.149, 503.712 728.443 C 504.478 728.737, 504.829 728.532, 504.493 727.989 C 503.618 726.573, 502.439 726.766, 500.942 728.570 M 287.336 731 C 287.533 733.998, 290.377 734.423, 290.679 731.500 C 290.839 729.946, 290.770 729.890, 290.369 731.250 C 289.649 733.694, 288.232 733.432, 287.656 730.750 C 287.230 728.767, 287.192 728.797, 287.336 731" stroke="none" fill="#121212" fill-rule="evenodd"/><path d="M -0 418.002 L -0 836.003 308.250 835.752 L 616.500 835.500 616.751 417.750 L 617.002 0 308.501 0 L 0 0 -0 418.002 M 0.495 418.500 C 0.495 648.400, 0.610 742.301, 0.750 627.168 C 0.890 512.036, 0.890 323.936, 0.750 209.168 C 0.610 94.401, 0.495 188.600, 0.495 418.500 M 106.108 71.082 C 93.860 73.487, 80.354 83.835, 74.784 95.081 C 63.970 116.916, 73.463 145.509, 95.081 156.216 C 112.352 164.769, 133.961 161.104, 147.651 147.300 C 158.048 136.816, 162.495 123.362, 160.284 109.079 C 156.214 82.786, 132.216 65.954, 106.108 71.082 M 274.250 101.708 C 273.465 101.996, 273 104.138, 273 107.467 C 273 111.926, 272.683 112.850, 271 113.290 C 269.900 113.577, 269 114.530, 269 115.406 C 269 116.333, 269.837 117, 271 117 C 272.721 117, 273 117.667, 273 121.777 C 273 127.367, 275.136 131, 278.422 131 C 280.851 131, 286 127.532, 286 125.896 C 286 124.039, 282.903 123.778, 281.026 125.477 C 278.340 127.907, 277 126.583, 277 121.498 L 277 117.115 281.250 116.807 C 287.154 116.380, 287.186 113.622, 281.292 113.195 L 277.083 112.889 277.292 107.995 C 277.504 103.001, 276.483 100.890, 274.250 101.708 M 486.240 102.160 C 485.559 102.841, 485.346 105.129, 485.692 108.050 C 486.216 112.469, 486.086 112.852, 483.957 113.164 C 480.996 113.597, 480.191 115.976, 482.778 116.652 C 484.384 117.072, 484.855 118.242, 485.228 122.736 C 485.709 128.533, 487.500 131, 491.226 131 C 494.032 131, 498 128.004, 498 125.885 C 498 123.580, 496.257 123.458, 493.892 125.598 C 491.328 127.918, 490 126.500, 490 121.441 L 490 117 494 117 C 497.333 117, 498 116.667, 498 115 C 498 113.333, 497.333 113, 494 113 L 490 113 490 108.122 C 490 102.917, 488.253 100.147, 486.240 102.160 M 256.500 102.793 C 251.530 103.821, 248.832 109.569, 251.447 113.559 C 252.293 114.851, 255.014 117.096, 257.493 118.549 C 262.218 121.318, 263.181 123.775, 260.434 126.055 C 259.196 127.082, 258.187 127.108, 255.613 126.177 C 251.318 124.624, 251 124.672, 251 126.879 C 251 129.650, 256.252 131.540, 260.801 130.406 C 269.131 128.329, 268.626 120.403, 259.819 114.984 C 255.963 112.611, 254.939 111.450, 255.185 109.729 C 255.565 107.062, 258.399 106.340, 261.652 108.081 C 263.437 109.036, 264.328 109.072, 265.178 108.222 C 267.502 105.898, 261.039 101.854, 256.500 102.793 M 370.357 103.513 C 370.037 104.345, 370.334 105.698, 371.017 106.520 C 371.815 107.482, 372.300 111.844, 372.379 118.757 C 372.492 128.793, 372.632 129.500, 374.500 129.500 C 376.356 129.500, 376.519 128.745, 376.764 119 C 376.992 109.960, 376.751 108.048, 375.029 105.250 C 372.860 101.725, 371.270 101.133, 370.357 103.513 M 410.392 103.422 C 410.092 104.204, 410.331 105.749, 410.923 106.856 C 411.515 107.963, 412 113.637, 412 119.466 C 412 128.260, 412.272 130.167, 413.601 130.677 C 415.775 131.512, 416.966 129.311, 416.985 124.423 C 416.999 120.501, 417.109 120.362, 419.885 120.770 C 423.851 121.352, 426.902 119.479, 428.598 115.420 C 429.812 112.514, 429.823 111.511, 428.668 108.750 C 426.554 103.692, 424.686 102.640, 419.010 103.312 C 416.267 103.637, 413.794 103.475, 413.469 102.950 C 412.604 101.551, 411.016 101.795, 410.392 103.422 M 473.250 103.662 C 471.682 104.295, 471.626 107.226, 473.153 108.753 C 474.723 110.323, 478 108.510, 478 106.072 C 478 104.638, 475.716 102.587, 474.668 103.079 C 474.576 103.122, 473.938 103.385, 473.250 103.662 M 504.229 104.171 C 502.482 105.918, 502.707 107.773, 504.804 108.895 C 507.281 110.221, 509.244 108.761, 508.837 105.897 C 508.457 103.215, 506.077 102.323, 504.229 104.171 M 354.968 107.250 C 354.951 108.487, 354.276 110.374, 353.468 111.441 C 351.569 113.952, 351.586 118.411, 353.500 120 C 355.581 121.727, 355.373 124.627, 353 127 C 348.726 131.274, 351.858 139, 357.865 139 C 362.193 139, 366 135.529, 366 131.582 C 366 128.399, 363.549 125, 361.255 125 C 358.980 125, 359.440 122.397, 362.165 119.849 C 365.776 116.472, 365.739 114.493, 362 111 C 360.350 109.459, 359 107.478, 359 106.599 C 359 105.667, 358.166 105, 357 105 C 355.602 105, 354.990 105.677, 354.968 107.250 M 417.667 107.667 C 417.300 108.033, 417 110.072, 417 112.198 C 417 116.624, 418.769 117.882, 422.564 116.153 C 425.250 114.929, 425.961 110.361, 423.800 108.200 C 422.506 106.906, 418.753 106.580, 417.667 107.667 M 391 116 L 391 123 388.067 123 C 384.607 123, 383.474 120.618, 384.453 115.400 C 384.951 112.742, 384.726 111.832, 383.447 111.341 C 381.151 110.460, 380.033 112.675, 380.015 118.139 C 379.996 123.998, 382.384 127.224, 386.861 127.384 C 389.780 127.489, 390.028 127.738, 389.472 130 C 388.550 133.758, 387.390 134.499, 384.493 133.179 C 382.347 132.201, 381.831 132.277, 381.304 133.651 C 379.729 137.754, 388.900 139.665, 391.378 135.750 C 393.437 132.494, 395 123.954, 395 115.951 C 395 109.667, 394.808 109, 393 109 C 391.190 109, 391 109.667, 391 116 M 455 113 C 453.900 114.100, 453 115.625, 453 116.389 C 453 118.753, 456.582 122.349, 460.123 123.541 C 465.606 125.387, 464.487 127.560, 458.250 127.178 C 452.961 126.855, 451.768 127.733, 454.461 129.967 C 456.417 131.591, 464.527 131.637, 466.457 130.035 C 468.418 128.408, 468.445 124.588, 466.509 122.652 C 465.689 121.832, 463.439 120.640, 461.509 120.003 C 459.025 119.183, 458 118.250, 458 116.809 C 458 114.963, 458.419 114.836, 462.500 115.448 C 465.960 115.967, 467 115.808, 467 114.761 C 467 110.708, 458.534 109.466, 455 113 M 331.173 113.227 C 330.412 113.988, 330.554 115.171, 331.664 117.317 C 332.739 119.395, 333.039 121.699, 332.627 124.705 C 332.163 128.092, 332.372 129.205, 333.557 129.660 C 335.795 130.519, 336.397 129.468, 336.978 123.689 C 337.415 119.341, 337.824 118.500, 339.500 118.500 C 341.196 118.500, 341.576 119.333, 342 123.991 C 342.364 127.990, 342.939 129.566, 344.116 129.789 C 345.238 130.001, 345.928 129.110, 346.377 126.866 C 347.964 118.932, 344.077 113.135, 337.988 114.352 C 336.345 114.681, 335 114.559, 335 114.082 C 335 112.666, 332.330 112.070, 331.173 113.227 M 513 113.448 C 513 114.245, 514.152 118.545, 515.561 123.003 C 519.404 135.169, 521.774 134.963, 526.997 122.008 C 528.749 117.661, 529.890 113.631, 529.532 113.052 C 528.005 110.581, 526.137 112.448, 523.444 119.139 L 520.570 126.279 519.724 122.889 C 517.117 112.446, 516.922 112, 514.961 112 C 513.883 112, 513 112.652, 513 113.448 M 300.564 114.964 C 297.066 116.751, 296.446 116.809, 294.986 115.487 C 291.602 112.425, 288.608 114.805, 291.636 118.150 C 292.846 119.488, 293.526 121.926, 293.640 125.337 C 293.783 129.626, 294.124 130.500, 295.656 130.500 C 297.126 130.500, 297.565 129.592, 297.819 126.020 C 298.209 120.538, 299.138 119.339, 304.159 117.834 C 306.831 117.034, 307.985 116.159, 307.779 115.091 C 307.329 112.756, 304.970 112.715, 300.564 114.964 M 356.336 114.567 C 355.502 116.739, 357.618 118.782, 359.133 117.267 C 360.413 115.987, 359.620 113, 358 113 C 357.415 113, 356.667 113.705, 356.336 114.567 M 473.422 114.344 C 473.138 115.083, 473.040 119.020, 473.203 123.094 C 473.435 128.878, 473.828 130.500, 475 130.500 C 476.197 130.500, 476.558 128.733, 476.789 121.750 C 477.034 114.342, 476.837 113, 475.508 113 C 474.644 113, 473.705 113.605, 473.422 114.344 M 504.422 114.344 C 504.138 115.083, 504.040 119.020, 504.203 123.094 C 504.435 128.878, 504.828 130.500, 506 130.500 C 507.771 130.500, 509.653 119.738, 508.609 115.580 C 507.925 112.853, 505.292 112.075, 504.422 114.344 M 537.235 114.037 C 534.709 115.051, 533 118.666, 533 122.993 C 533 128.495, 540.272 131.656, 546.453 128.839 C 549.802 127.313, 550.067 123.430, 546.750 124.477 C 542.281 125.887, 539 126.207, 539 125.232 C 539 124.685, 540.998 123.734, 543.441 123.119 C 548.482 121.850, 549.429 120.844, 548.618 117.615 C 547.670 113.835, 542.097 112.084, 537.235 114.037 M 314.073 116.635 C 309.623 122.291, 312.625 130, 319.277 130 C 325.555 130, 329.122 125.081, 326.962 119.401 C 324.717 113.496, 317.722 111.995, 314.073 116.635 M 436.073 116.635 C 431.484 122.469, 434.960 130, 442.242 130 C 449.193 130, 452.540 121.449, 447.545 116.455 C 444.104 113.014, 438.856 113.096, 436.073 116.635 M 538.524 118.619 C 537.633 119.510, 537.062 120.395, 537.253 120.587 C 537.975 121.308, 544.902 118.651, 544.403 117.844 C 543.545 116.454, 540.255 116.888, 538.524 118.619 M 317.046 119.445 C 316.386 120.240, 315.994 121.927, 316.173 123.195 C 316.432 125.017, 317.129 125.500, 319.500 125.500 C 322.066 125.500, 322.548 125.081, 322.830 122.609 C 323.302 118.470, 319.555 116.421, 317.046 119.445 M 438.980 120.038 C 437.390 123.009, 438.670 126, 441.532 126 C 444.474 126, 446.064 123.296, 444.914 120.250 C 443.848 117.425, 440.443 117.304, 438.980 120.038 M 355.387 130.433 C 354.507 132.726, 355.673 135.002, 357.719 134.985 C 360.494 134.961, 362.231 133.442, 361.840 131.380 C 361.377 128.942, 356.248 128.189, 355.387 130.433 M 105.221 222.523 C 92.657 225.251, 81.447 234.276, 75.381 246.547 C 64.086 269.392, 72.810 295.378, 95.547 306.619 C 118.392 317.914, 144.378 309.190, 155.619 286.453 C 166.904 263.629, 158.180 237.596, 135.500 226.413 C 128.961 223.188, 119.785 220.915, 114 221.085 C 112.625 221.126, 108.675 221.773, 105.221 222.523 M 328.598 252.736 C 328.269 253.064, 328 255.733, 328 258.667 C 328 263.333, 327.750 264, 326 264 C 324.667 264, 324 264.667, 324 266 C 324 267.333, 324.667 268, 326 268 C 327.751 268, 328 268.667, 328 273.345 C 328 277.253, 328.492 279.135, 329.829 280.345 C 332.440 282.708, 335.700 282.391, 338.599 279.492 C 342.306 275.785, 339.777 273.082, 335.892 276.598 C 333.328 278.918, 332 277.500, 332 272.441 L 332 268 336 268 C 339.333 268, 340 267.667, 340 266 C 340 264.333, 339.333 264, 336 264 L 332 264 332 258.607 C 332 254.903, 331.561 253.045, 330.598 252.676 C 329.827 252.380, 328.927 252.407, 328.598 252.736 M 252.518 253.971 C 252.188 254.504, 252.646 256.349, 253.536 258.069 C 254.780 260.476, 255.082 263.466, 254.845 271.034 C 254.526 281.251, 254.869 282.648, 257.457 281.655 C 258.555 281.234, 259 279.661, 259 276.205 C 259 271.375, 259.018 271.349, 262.002 271.787 C 270.283 273.002, 275.026 261.829, 268.722 255.956 C 266.371 253.766, 260.105 253.295, 258.233 255.167 C 257.343 256.057, 256.913 255.938, 256.426 254.667 C 255.724 252.839, 253.466 252.437, 252.518 253.971 M 315.229 255.171 C 313.482 256.918, 313.707 258.773, 315.804 259.895 C 318.281 261.221, 320.244 259.761, 319.837 256.897 C 319.457 254.215, 317.077 253.323, 315.229 255.171 M 346.750 255.080 C 344.443 256.424, 344.526 258.676, 346.931 259.963 C 348.388 260.743, 349.246 260.612, 350.429 259.429 C 351.612 258.246, 351.743 257.388, 350.963 255.931 C 349.796 253.749, 349.231 253.635, 346.750 255.080 M 259.398 259.405 C 259.102 260.177, 259.003 262.315, 259.180 264.155 C 259.430 266.769, 260.004 267.571, 261.805 267.827 C 263.073 268.006, 264.760 267.614, 265.555 266.954 C 267.307 265.500, 267.454 260.854, 265.800 259.200 C 264.156 257.556, 260.057 257.687, 259.398 259.405 M 297.517 263.625 C 296.531 264.612, 296.011 266.479, 296.196 268.375 C 296.447 270.953, 297.287 271.897, 301 273.767 C 303.475 275.013, 305.650 276.476, 305.833 277.016 C 306.390 278.659, 303.208 279.268, 299.967 278.138 C 297.469 277.267, 296.802 277.353, 296.322 278.603 C 295.412 280.975, 297.241 282.058, 302.328 282.160 C 307.809 282.270, 310 280.797, 310 277 C 310 273.781, 308.864 272.700, 303.750 271.053 C 301.040 270.180, 300 269.280, 300 267.809 C 300 265.969, 300.424 265.837, 304.411 266.434 C 307.399 266.882, 309.062 266.709, 309.564 265.896 C 311.632 262.550, 300.661 260.482, 297.517 263.625 M 355.781 263.552 C 355.134 264.199, 356.961 271.429, 359.621 278.750 C 362.186 285.809, 364.850 284.084, 369.922 272.078 C 371.928 267.330, 372.711 264.311, 372.096 263.696 C 370.300 261.900, 368.506 263.754, 366.095 269.896 C 364.772 273.266, 363.422 275.756, 363.095 275.430 C 362.768 275.104, 361.824 272.292, 360.998 269.182 C 359.618 263.983, 357.565 261.768, 355.781 263.552 M 315.422 265.344 C 315.138 266.083, 315.040 270.020, 315.203 274.094 C 315.435 279.878, 315.828 281.500, 317 281.500 C 318.771 281.500, 320.653 270.738, 319.609 266.580 C 318.925 263.853, 316.292 263.075, 315.422 265.344 M 346.494 272.068 C 345.926 278.488, 346.063 280.425, 347.135 281.101 C 349.684 282.710, 351.098 278.999, 350.789 271.516 C 350.560 265.972, 350.160 264.456, 348.859 264.208 C 347.491 263.947, 347.097 265.255, 346.494 272.068 M 379.364 265.170 C 375.010 267.278, 373.705 274.179, 376.912 278.139 C 379.482 281.313, 388.369 281.583, 390.584 278.554 C 392.576 275.830, 390.833 274.299, 387.480 275.827 C 384.513 277.179, 381 277.375, 381 276.189 C 381 275.743, 383.224 274.808, 385.943 274.111 C 388.661 273.415, 391.063 272.317, 391.280 271.672 C 392.050 269.384, 390.708 266.900, 387.923 265.460 C 384.677 263.782, 382.391 263.704, 379.364 265.170 M 280.229 265.669 C 278.547 266.346, 276 271.361, 276 273.996 C 276 280.013, 285.539 283.249, 289.826 278.686 C 295.829 272.296, 288.492 262.345, 280.229 265.669 M 381.200 269.200 C 379.101 271.299, 379.896 271.845, 383.462 270.750 C 385.367 270.166, 386.690 269.308, 386.403 268.844 C 385.639 267.606, 382.585 267.815, 381.200 269.200 M 281.390 270.427 C 280.168 273.611, 281.443 276.493, 284.215 276.813 C 286.421 277.067, 287.052 276.643, 287.577 274.550 C 288.332 271.541, 286.624 269, 283.846 269 C 282.796 269, 281.691 269.642, 281.390 270.427 M 100.167 374.456 C 80.313 381.830, 67.600 403.368, 70.922 423.999 C 74.468 446.017, 93.405 461.957, 116.056 461.989 C 142.945 462.028, 164.380 436.714, 160.078 410.001 C 157.279 392.624, 144.812 378.794, 127.099 373.418 C 119.832 371.212, 107.637 371.682, 100.167 374.456 M 320.250 402.708 C 319.465 402.996, 319 405.138, 319 408.467 C 319 412.926, 318.683 413.850, 317 414.290 C 315.900 414.577, 315 415.530, 315 416.406 C 315 417.333, 315.837 418, 317 418 C 318.721 418, 319 418.667, 319 422.777 C 319 428.367, 321.136 432, 324.422 432 C 326.851 432, 332 428.532, 332 426.896 C 332 425.039, 328.903 424.778, 327.026 426.477 C 324.340 428.907, 323 427.583, 323 422.498 L 323 418.115 327.250 417.807 C 333.154 417.380, 333.186 414.622, 327.292 414.195 L 323.083 413.889 323.292 408.995 C 323.504 404.001, 322.483 401.890, 320.250 402.708 M 381.513 405.750 C 381.924 407.262, 382.539 413.445, 382.880 419.490 C 383.409 428.869, 383.756 430.528, 385.250 430.813 C 386.735 431.096, 387.034 430.265, 387.225 425.323 C 387.805 410.273, 386.220 403, 382.360 403 C 381.108 403, 380.926 403.588, 381.513 405.750 M 251.937 404.250 C 251.903 404.387, 251.820 410.125, 251.752 417 C 251.637 428.736, 251.748 429.500, 253.565 429.500 C 255.262 429.500, 255.561 428.578, 256 422 L 256.500 414.500 261.425 422.250 C 264.626 427.288, 266.988 430, 268.175 430 C 269.848 430, 270 428.919, 270 417 C 270 404.667, 269.897 404, 268 404 C 266.153 404, 266 404.668, 265.997 412.750 L 265.995 421.500 261.057 414 C 255.340 405.318, 254.273 404, 252.961 404 C 252.432 404, 251.972 404.113, 251.937 404.250 M 294.736 417.978 C 294.035 425.702, 294.968 429.121, 298.283 430.984 C 300.368 432.155, 301.543 432.234, 303.869 431.355 C 306.269 430.450, 307.109 430.537, 308.400 431.829 C 310.827 434.256, 312.748 431.937, 311.173 428.480 C 310.528 427.064, 310 422.777, 310 418.953 C 310 412.740, 309.794 412, 308.061 412 C 306.537 412, 305.982 412.940, 305.463 416.401 C 305.100 418.822, 305.090 421.709, 305.442 422.816 C 305.889 424.226, 305.434 425.283, 303.926 426.340 C 300.233 428.926, 299.111 427.468, 298.792 419.670 C 298.562 414.049, 298.156 412.456, 296.893 412.215 C 295.606 411.969, 295.177 413.115, 294.736 417.978 M 277.555 416.250 C 276.148 417.488, 274.721 419.944, 274.382 421.710 C 273.534 426.130, 278.215 431, 283.312 431 C 287.739 431, 292.098 427.750, 290.225 425.846 C 289.210 424.814, 288.550 424.800, 286.989 425.775 C 284.762 427.165, 281 427.417, 281 426.176 C 281 425.722, 283.136 424.688, 285.746 423.877 C 291.359 422.134, 292.163 420.072, 288.614 416.523 C 285.430 413.339, 280.988 413.229, 277.555 416.250 M 346.564 415.964 C 343.066 417.751, 342.446 417.809, 340.986 416.487 C 337.602 413.425, 334.608 415.805, 337.636 419.150 C 338.846 420.488, 339.526 422.926, 339.640 426.337 C 339.783 430.626, 340.124 431.500, 341.656 431.500 C 343.126 431.500, 343.565 430.592, 343.819 427.020 C 344.209 421.538, 345.138 420.339, 350.159 418.834 C 352.831 418.034, 353.985 417.159, 353.779 416.091 C 353.329 413.756, 350.970 413.715, 346.564 415.964 M 359.174 417.314 C 354.669 422.111, 357.774 429, 364.441 429 C 366.334 429, 368.184 428.511, 368.554 427.913 C 369.038 427.130, 369.530 427.130, 370.313 427.913 C 370.911 428.511, 372.918 429, 374.773 429 C 377.446 429, 378.078 428.636, 377.815 427.250 C 377.617 426.208, 376.401 425.375, 374.808 425.190 C 372.759 424.953, 371.979 424.181, 371.477 421.896 C 370.056 415.426, 363.309 412.914, 359.174 417.314 M 279.980 419.524 C 278.274 421.580, 278.891 421.863, 282.786 420.812 C 284.593 420.324, 285.804 419.491, 285.477 418.962 C 284.568 417.492, 281.397 417.816, 279.980 419.524 M 361.659 420.447 C 360.698 422.950, 362.061 425.133, 364.377 424.803 C 365.894 424.586, 366.500 423.786, 366.500 422 C 366.500 419.086, 362.654 417.853, 361.659 420.447 M 100.167 525.456 C 80.313 532.830, 67.600 554.368, 70.922 574.999 C 74.468 597.017, 93.405 612.957, 116.056 612.989 C 142.945 613.028, 164.380 587.714, 160.078 561.001 C 157.279 543.624, 144.812 529.794, 127.099 524.418 C 119.832 522.212, 107.637 522.682, 100.167 525.456 M 342.176 554.224 C 341.529 554.871, 341 557.508, 341 560.083 C 341 563.926, 340.641 564.861, 339 565.290 C 337.900 565.577, 337 566.530, 337 567.406 C 337 568.333, 337.837 569, 339 569 C 340.721 569, 341 569.667, 341 573.777 C 341 579.367, 343.136 583, 346.422 583 C 349.169 583, 354 579.447, 354 577.427 C 354 575.529, 350.371 575.590, 349.638 577.500 C 348.881 579.473, 346.376 579.422, 345.607 577.418 C 345.273 576.548, 345 574.298, 345 572.418 C 345 569.026, 345.034 569, 349.573 569 C 353.389 569, 354.092 568.710, 353.815 567.250 C 353.583 566.027, 352.357 565.407, 349.742 565.190 L 346 564.879 346 560.062 C 346 554.845, 344.241 552.159, 342.176 554.224 M 253.959 555.167 C 253.936 555.350, 253.735 561.237, 253.512 568.250 C 253.135 580.088, 253.236 581, 254.936 581 C 257.159 581, 257.968 578.349, 257.986 571.009 L 258 565.518 263.564 573.828 C 271.043 584.999, 272 584.267, 272 567.378 C 272 555.749, 271.881 555, 270.039 555 C 268.263 555, 268.051 555.822, 267.789 563.697 L 267.500 572.394 262 564.013 C 257.450 557.079, 254.168 553.468, 253.959 555.167 M 360.250 555.662 C 358.682 556.295, 358.626 559.226, 360.153 560.753 C 361.723 562.323, 365 560.510, 365 558.072 C 365 556.638, 362.716 554.587, 361.668 555.079 C 361.576 555.122, 360.938 555.385, 360.250 555.662 M 299.159 562.422 C 296.755 567.999, 296.883 571.357, 299.538 572.376 C 301.714 573.211, 301.313 575.839, 298.500 579.182 C 295.458 582.798, 295.359 584.916, 298.073 588.365 C 303.242 594.937, 314.125 588.544, 310.924 580.816 C 310.282 579.267, 309.448 578, 309.070 578 C 308.692 578, 307.513 577.364, 306.451 576.588 C 304.574 575.215, 304.597 575.103, 307.260 572.635 C 308.825 571.184, 310 569.034, 310 567.619 C 310 565.204, 307.718 562, 305.998 562 C 305.526 562, 304.995 560.992, 304.820 559.760 C 304.215 555.520, 301.606 556.747, 299.159 562.422 M 369 565.448 C 369 566.245, 370.152 570.545, 371.561 575.003 C 375.404 587.169, 377.774 586.963, 382.997 574.008 C 384.749 569.661, 385.890 565.631, 385.532 565.052 C 384.005 562.581, 382.137 564.448, 379.444 571.139 L 376.570 578.279 375.724 574.889 C 373.117 564.446, 372.922 564, 370.961 564 C 369.883 564, 369 564.652, 369 565.448 M 280.364 566.170 C 276.010 568.278, 274.705 575.179, 277.912 579.139 C 280.482 582.313, 289.369 582.583, 291.584 579.554 C 293.576 576.830, 291.833 575.299, 288.480 576.827 C 285.513 578.179, 282 578.375, 282 577.189 C 282 576.743, 284.224 575.808, 286.943 575.111 C 289.661 574.415, 292.063 573.317, 292.280 572.672 C 293.050 570.384, 291.708 567.900, 288.923 566.460 C 285.677 564.782, 283.391 564.704, 280.364 566.170 M 302.180 567.172 C 302.356 568.366, 303.062 569.529, 303.749 569.755 C 305.563 570.352, 306.571 566.975, 304.896 565.914 C 302.640 564.486, 301.840 564.856, 302.180 567.172 M 360.422 566.344 C 360.138 567.083, 360.040 571.020, 360.203 575.094 C 360.435 580.878, 360.828 582.500, 362 582.500 C 363.197 582.500, 363.558 580.733, 363.789 573.750 C 364.034 566.342, 363.837 565, 362.508 565 C 361.644 565, 360.705 565.605, 360.422 566.344 M 391.455 567.455 C 387.936 570.973, 388.024 577.087, 391.635 579.927 C 393.084 581.067, 395.684 582, 397.412 582 C 400.988 582, 405 579.590, 405 577.443 C 405 575.814, 401.449 575.464, 400.500 577 C 399.759 578.199, 395 578.351, 395 577.176 C 395 576.723, 397.137 575.711, 399.750 574.926 C 405.568 573.179, 406.534 570.352, 402.420 567.115 C 398.802 564.270, 394.506 564.403, 391.455 567.455 M 317 568 C 314.198 570.802, 314.317 576.408, 317.223 578.443 C 319.700 580.179, 323.733 580.455, 325.966 579.042 C 326.887 578.460, 327.889 578.493, 328.656 579.129 C 329.329 579.688, 331.144 579.999, 332.690 579.822 C 336.394 579.398, 336.442 576.608, 332.752 576.184 C 330.718 575.950, 329.840 575.171, 329.371 573.184 C 327.834 566.674, 321.134 563.866, 317 568 M 282.200 570.200 C 280.101 572.299, 280.896 572.845, 284.462 571.750 C 286.367 571.166, 287.690 570.308, 287.403 569.844 C 286.639 568.606, 283.585 568.815, 282.200 570.200 M 393.980 570.524 C 393.284 571.362, 392.892 572.195, 393.107 572.374 C 393.904 573.034, 400 570.910, 400 569.971 C 400 568.423, 395.371 568.848, 393.980 570.524 M 319.362 571.500 C 318.464 573.839, 319.731 576, 322 576 C 324.544 576, 325.651 573.489, 323.989 571.487 C 322.402 569.574, 320.098 569.580, 319.362 571.500 M 301.362 582.500 C 300.390 585.031, 301.815 587.165, 304.246 586.820 C 305.861 586.591, 306.590 585.721, 306.816 583.750 C 307.090 581.375, 306.779 581, 304.535 581 C 303.106 581, 301.678 581.675, 301.362 582.500 M 100.423 676.363 C 92.137 679.444, 88.209 682.028, 82.274 688.304 C 68.754 702.599, 66.341 722.141, 75.791 740.810 C 78.860 746.873, 86.628 754.992, 92.611 758.391 C 106.600 766.337, 125.049 766.022, 139.434 757.591 C 144.675 754.520, 153.169 745.549, 155.894 740.207 C 168.581 715.338, 156.046 684.700, 129.480 675.648 C 122.165 673.156, 108.121 673.501, 100.423 676.363 M 267.176 705.224 C 266.529 705.871, 266 708.508, 266 711.083 C 266 714.926, 265.641 715.861, 264 716.290 C 262.900 716.577, 262 717.530, 262 718.406 C 262 719.333, 262.837 720, 264 720 C 265.721 720, 266 720.667, 266 724.777 C 266 730.367, 268.136 734, 271.422 734 C 274.169 734, 279 730.447, 279 728.427 C 279 726.529, 275.371 726.590, 274.638 728.500 C 273.881 730.473, 271.376 730.422, 270.607 728.418 C 270.273 727.548, 270 725.298, 270 723.418 C 270 720.026, 270.034 720, 274.573 720 C 278.389 720, 279.092 719.710, 278.815 718.250 C 278.583 717.027, 277.357 716.407, 274.742 716.190 L 271 715.879 271 711.062 C 271 705.845, 269.241 703.159, 267.176 705.224 M 493.176 705.224 C 492.529 705.871, 492 708.508, 492 711.083 C 492 714.926, 491.641 715.861, 490 716.290 C 488.900 716.577, 488 717.530, 488 718.406 C 488 719.333, 488.837 720, 490 720 C 491.721 720, 492 720.667, 492 724.777 C 492 730.367, 494.136 734, 497.422 734 C 500.169 734, 505 730.447, 505 728.427 C 505 726.529, 501.371 726.590, 500.638 728.500 C 499.881 730.473, 497.376 730.422, 496.607 728.418 C 496.273 727.548, 496 725.298, 496 723.418 C 496 720.026, 496.034 720, 500.573 720 C 504.389 720, 505.092 719.710, 504.815 718.250 C 504.583 717.027, 503.357 716.407, 500.742 716.190 L 497 715.879 497 711.062 C 497 705.845, 495.241 703.159, 493.176 705.224 M 247.783 706.885 C 244.302 708.652, 242.811 712.256, 244.109 715.764 C 244.558 716.979, 247.192 719.367, 249.963 721.072 C 253.748 723.401, 255 724.767, 255 726.567 C 255 729.413, 251.309 730.771, 248.159 729.085 C 245.234 727.520, 244 727.744, 244 729.839 C 244 733.915, 253.042 735.328, 257.365 731.927 C 262.304 728.042, 260.699 722.940, 252.980 717.987 C 249.148 715.528, 247.971 714.208, 248.198 712.623 C 248.567 710.052, 251.444 709.364, 254.652 711.081 C 258.048 712.899, 260.091 710.863, 257.617 708.129 C 255.193 705.451, 251.524 704.987, 247.783 706.885 M 363.518 705.971 C 363.188 706.504, 363.634 708.325, 364.508 710.016 C 365.680 712.283, 366.052 715.584, 365.921 722.584 C 365.824 727.805, 366.007 732.341, 366.329 732.662 C 366.651 732.984, 367.608 732.981, 368.457 732.655 C 370.810 731.752, 370.672 711.946, 368.284 707.904 C 366.552 704.971, 364.620 704.188, 363.518 705.971 M 404.959 706.167 C 404.936 706.350, 404.735 712.237, 404.512 719.250 C 404.135 731.088, 404.236 732, 405.936 732 C 408.159 732, 408.968 729.349, 408.986 722.009 L 409 716.518 414.564 724.828 C 422.043 735.999, 423 735.267, 423 718.378 C 423 706.749, 422.881 706, 421.039 706 C 419.263 706, 419.051 706.822, 418.789 714.697 L 418.500 723.394 413 715.013 C 408.450 708.079, 405.168 704.468, 404.959 706.167 M 511.250 706.662 C 509.682 707.295, 509.626 710.226, 511.153 711.753 C 512.723 713.323, 516 711.510, 516 709.072 C 516 707.638, 513.716 705.587, 512.668 706.079 C 512.576 706.122, 511.938 706.385, 511.250 706.662 M 348.390 709.750 C 348.089 710.712, 347.203 712.694, 346.422 714.154 C 344.614 717.530, 344.600 721.423, 346.392 722.910 C 348.901 724.993, 348.900 727.745, 346.388 730.105 C 340.061 736.049, 347.478 744.976, 355.316 740.850 C 358.260 739.300, 358.967 738.060, 358.985 734.405 C 359 731.347, 356.484 728, 354.171 728 C 352.196 728, 352.867 725.474, 355.500 723 C 358.642 720.048, 358.694 716.691, 355.635 714.285 C 354.334 713.261, 352.953 711.429, 352.567 710.212 C 351.729 707.572, 349.160 707.288, 348.390 709.750 M 450.159 713.422 C 447.755 718.999, 447.883 722.357, 450.538 723.376 C 452.714 724.211, 452.313 726.839, 449.500 730.182 C 446.458 733.798, 446.359 735.916, 449.073 739.365 C 454.242 745.937, 465.125 739.544, 461.924 731.816 C 461.282 730.267, 460.448 729, 460.070 729 C 459.692 729, 458.513 728.364, 457.451 727.588 C 455.574 726.215, 455.597 726.103, 458.260 723.635 C 459.825 722.184, 461 720.034, 461 718.619 C 461 716.204, 458.718 713, 456.998 713 C 456.526 713, 455.995 711.992, 455.820 710.760 C 455.215 706.520, 452.606 707.747, 450.159 713.422 M 384.667 712.667 C 384.300 713.033, 384 716.183, 384 719.667 L 384 726 381 726 C 378.028 726, 378 725.948, 378 720.469 C 378 716.406, 377.590 714.780, 376.457 714.345 C 374.084 713.435, 373.571 714.604, 373.534 721.011 C 373.495 727.843, 375.112 730.217, 379.923 730.390 C 383.355 730.513, 383.938 732.353, 381.561 735.559 C 380.322 737.230, 379.830 737.322, 378.020 736.216 C 375.755 734.832, 374 735.345, 374 737.390 C 374 739.182, 378.243 741.243, 381.101 740.839 C 382.696 740.614, 384.098 739.277, 385.283 736.853 C 387.214 732.905, 389.423 716.909, 388.458 713.869 C 387.868 712.009, 385.937 711.396, 384.667 712.667 M 324.337 716.564 C 324.007 717.424, 324.246 719.245, 324.869 720.611 C 325.491 721.977, 326 725.356, 326 728.120 C 326 732.367, 326.271 733.095, 327.750 732.814 C 329.105 732.556, 329.569 731.288, 329.804 727.189 C 330.017 723.474, 330.582 721.714, 331.699 721.285 C 334.229 720.315, 336.063 723.756, 335.359 728.153 C 334.872 731.203, 335.095 732.099, 336.476 732.629 C 339.076 733.627, 340.136 731.153, 339.700 725.100 C 339.229 718.564, 337.262 716.622, 331.817 717.320 C 329.247 717.649, 327.972 717.370, 327.598 716.396 C 326.883 714.530, 325.082 714.623, 324.337 716.564 M 520 716.642 C 520 719.422, 524.103 732.424, 525.411 733.787 C 527.566 736.034, 529.703 734.066, 532.918 726.875 C 536.639 718.553, 537.115 715.711, 534.867 715.240 C 533.670 714.990, 532.437 716.809, 530.244 722.062 L 527.254 729.225 525.995 723.863 C 525.302 720.913, 524.329 717.712, 523.833 716.750 C 522.691 714.538, 520 714.462, 520 716.642 M 293.539 717.977 C 290.099 719.733, 289.469 719.802, 288.740 718.500 C 288.278 717.675, 287.023 717, 285.950 717 C 283.618 717, 283.415 719.642, 285.532 722.441 C 286.350 723.523, 287 726.511, 287 729.191 C 287 733.333, 287.277 734, 289 734 C 290.738 734, 291 733.333, 291 728.914 L 291 723.828 296.032 721.702 C 299.353 720.299, 300.965 719.056, 300.771 718.049 C 300.329 715.752, 297.944 715.728, 293.539 717.977 M 349.556 716.910 C 348.721 718.261, 350.022 721, 351.500 721 C 353.285 721, 354.079 718.479, 352.722 717.122 C 351.363 715.763, 350.308 715.692, 349.556 716.910 M 431.364 717.170 C 427.010 719.278, 425.705 726.179, 428.912 730.139 C 431.482 733.313, 440.369 733.583, 442.584 730.554 C 444.576 727.830, 442.833 726.299, 439.480 727.827 C 436.513 729.179, 433 729.375, 433 728.189 C 433 727.743, 435.224 726.808, 437.943 726.111 C 440.661 725.415, 443.063 724.317, 443.280 723.672 C 444.050 721.384, 442.708 718.900, 439.923 717.460 C 436.677 715.782, 434.391 715.704, 431.364 717.170 M 453.180 718.172 C 453.356 719.366, 454.062 720.529, 454.749 720.755 C 456.563 721.352, 457.571 717.975, 455.896 716.914 C 453.640 715.486, 452.840 715.856, 453.180 718.172 M 511.422 717.344 C 511.138 718.083, 511.040 722.020, 511.203 726.094 C 511.435 731.878, 511.828 733.500, 513 733.500 C 514.197 733.500, 514.558 731.733, 514.789 724.750 C 515.034 717.342, 514.837 716, 513.508 716 C 512.644 716, 511.705 716.605, 511.422 717.344 M 542.455 718.455 C 538.936 721.973, 539.024 728.087, 542.635 730.927 C 544.084 732.067, 546.684 733, 548.412 733 C 551.988 733, 556 730.590, 556 728.443 C 556 726.814, 552.449 726.464, 551.500 728 C 550.759 729.199, 546 729.351, 546 728.176 C 546 727.723, 548.138 726.711, 550.750 725.926 C 556.568 724.179, 557.534 721.352, 553.420 718.115 C 549.802 715.270, 545.506 715.403, 542.455 718.455 M 307.073 719.635 C 302.484 725.469, 305.960 733, 313.242 733 C 320.193 733, 323.540 724.449, 318.545 719.455 C 315.104 716.014, 309.856 716.096, 307.073 719.635 M 467.944 718.844 C 462.963 722.877, 466.376 731, 473.052 731 C 474.608 731, 476.161 730.549, 476.502 729.997 C 476.912 729.333, 477.792 729.354, 479.110 730.059 C 480.204 730.644, 482.314 730.983, 483.799 730.812 C 487.481 730.387, 487.312 727.661, 483.563 727.010 C 481.277 726.613, 480.443 725.790, 479.796 723.295 C 478.293 717.493, 472.363 715.266, 467.944 718.844 M 433.200 721.200 C 431.101 723.299, 431.896 723.845, 435.462 722.750 C 437.367 722.166, 438.690 721.308, 438.403 720.844 C 437.639 719.606, 434.585 719.815, 433.200 721.200 M 544.980 721.524 C 544.284 722.362, 543.892 723.195, 544.107 723.374 C 544.904 724.034, 551 721.910, 551 720.971 C 551 719.423, 546.371 719.848, 544.980 721.524 M 309.980 723.038 C 308.390 726.009, 309.670 729, 312.532 729 C 315.474 729, 317.064 726.296, 315.914 723.250 C 314.848 720.425, 311.443 720.304, 309.980 723.038 M 470.362 722.500 C 469.481 724.796, 470.717 727, 472.885 727 C 475.221 727, 476.066 725.153, 474.830 722.750 C 473.727 720.606, 471.144 720.461, 470.362 722.500 M 348.659 733.446 C 347.614 736.168, 349.063 738.130, 351.878 737.804 C 353.927 737.566, 354.500 736.954, 354.500 735 C 354.500 733.046, 353.927 732.434, 351.878 732.196 C 350.217 732.003, 349.037 732.461, 348.659 733.446 M 452.362 733.500 C 451.390 736.031, 452.815 738.165, 455.246 737.820 C 456.861 737.591, 457.590 736.721, 457.816 734.750 C 458.090 732.375, 457.779 732, 455.535 732 C 454.106 732, 452.678 732.675, 452.362 733.500" stroke="none" fill="#f8f9f7" fill-rule="evenodd"/></svg>