<svg xmlns="http://www.w3.org/2000/svg" width="220" height="462" viewBox="0 0 220 462" version="1.1"><path d="M 43.667 228.667 C 42.494 229.840, 42.939 230.730, 45.557 232.445 L 48.114 234.121 46.531 231.060 C 44.832 227.774, 44.683 227.650, 43.667 228.667 M 175.500 231 C 175.500 232.545, 175.838 233.600, 176.250 233.345 C 176.662 233.091, 177 232.035, 177 231 C 177 229.965, 176.662 228.909, 176.250 228.655 C 175.838 228.400, 175.500 229.455, 175.500 231 M 177.468 234.101 C 177.101 235.256, 177.240 236.640, 177.776 237.176 C 178.409 237.809, 178.909 237.073, 179.202 235.075 C 179.713 231.595, 178.483 230.904, 177.468 234.101 M 60 237 C 60.825 237.533, 62.175 237.945, 63 237.914 C 63.989 237.878, 63.819 237.567, 62.500 237 C 59.751 235.819, 58.172 235.819, 60 237 M 161 237 C 159.718 237.828, 159.754 237.972, 161.250 237.985 C 162.213 237.993, 163 237.550, 163 237 C 163 235.780, 162.887 235.780, 161 237 M 78 238.298 C 78 239.566, 88.600 240.969, 91.500 240.086 C 94.360 239.215, 94.289 239.167, 90 239.075 C 87.525 239.022, 83.813 238.699, 81.750 238.358 C 79.688 238.017, 78 237.990, 78 238.298 M 134.500 238.958 C 131.188 239.302, 129.172 239.880, 130 240.248 C 130.825 240.616, 135.775 240.314, 141 239.578 C 151.043 238.164, 146.418 237.723, 134.500 238.958 M 58.500 241 C 62.986 242.142, 71 242.142, 71 241 C 71 240.409, 67.829 240.048, 63.250 240.118 C 57.557 240.205, 56.296 240.439, 58.500 241 M 125.813 240.683 C 126.534 240.972, 127.397 240.936, 127.729 240.604 C 128.061 240.272, 127.471 240.036, 126.417 240.079 C 125.252 240.127, 125.015 240.364, 125.813 240.683 M 170 242 C 170 243.867, 170.267 244.133, 171.200 243.200 C 172.133 242.267, 172.133 241.733, 171.200 240.800 C 170.267 239.867, 170 240.133, 170 242 M 61.750 249.662 C 62.438 249.940, 63.563 249.940, 64.250 249.662 C 64.938 249.385, 64.375 249.158, 63 249.158 C 61.625 249.158, 61.063 249.385, 61.750 249.662 M 131.762 249.707 C 133.006 249.946, 134.806 249.937, 135.762 249.687 C 136.718 249.437, 135.700 249.241, 133.500 249.252 C 131.300 249.263, 130.518 249.468, 131.762 249.707 M 73.813 251.683 C 74.534 251.972, 75.397 251.936, 75.729 251.604 C 76.061 251.272, 75.471 251.036, 74.417 251.079 C 73.252 251.127, 73.015 251.364, 73.813 251.683 M 44.500 271 C 44.840 271.550, 45.991 272, 47.059 272 C 48.127 272, 49 271.550, 49 271 C 49 270.450, 47.848 270, 46.441 270 C 44.990 270, 44.149 270.433, 44.500 271 M 54 273 C 52.718 273.828, 52.754 273.972, 54.250 273.985 C 55.212 273.993, 56 273.550, 56 273 C 56 271.780, 55.887 271.780, 54 273 M 161 273 C 161 273.550, 161.477 274, 162.059 274 C 162.641 274, 162.840 273.550, 162.500 273 C 162.160 272.450, 161.684 272, 161.441 272 C 161.198 272, 161 272.450, 161 273 M 84.750 275.706 C 85.987 275.944, 88.013 275.944, 89.250 275.706 C 90.487 275.467, 89.475 275.272, 87 275.272 C 84.525 275.272, 83.513 275.467, 84.750 275.706 M 57.595 276.846 C 57.305 277.315, 64.140 278.443, 72.784 279.352 C 90.634 281.230, 124.893 281.524, 143.500 279.959 C 150.100 279.404, 156.968 278.888, 158.762 278.813 C 160.557 278.737, 162.560 277.961, 163.214 277.088 C 164.186 275.790, 164.160 275.716, 163.073 276.678 C 162.057 277.579, 161.302 277.581, 159.872 276.688 C 158.432 275.789, 157.541 275.805, 156.013 276.760 C 149.288 280.960, 78.623 280.770, 60.311 276.503 C 59.107 276.222, 57.885 276.376, 57.595 276.846 M 163.585 281.750 C 162.295 283.044, 147.496 283.976, 118.500 284.591 C 96.540 285.056, 87.245 284.841, 75.410 283.592 C 60.154 281.983, 52.731 281.668, 61 282.982 C 79.661 285.947, 83.879 286.150, 115.178 285.589 C 153.982 284.893, 162.470 284.344, 164.064 282.423 C 165.285 280.952, 164.909 280.423, 163.585 281.750 M 66.079 289.583 C 66.127 290.748, 66.364 290.985, 66.683 290.188 C 66.972 289.466, 66.936 288.603, 66.604 288.271 C 66.272 287.939, 66.036 288.529, 66.079 289.583 M 62.252 307.500 C 62.263 309.700, 62.468 310.482, 62.707 309.238 C 62.946 307.994, 62.937 306.194, 62.687 305.238 C 62.437 304.282, 62.241 305.300, 62.252 307.500 M 70.300 321 C 70.300 324.025, 70.487 325.262, 70.716 323.750 C 70.945 322.238, 70.945 319.762, 70.716 318.250 C 70.487 316.738, 70.300 317.975, 70.300 321 M 64.158 324 C 64.158 325.375, 64.385 325.938, 64.662 325.250 C 64.940 324.563, 64.940 323.438, 64.662 322.750 C 64.385 322.063, 64.158 322.625, 64.158 324 M 143.803 335.561 C 143.574 337.519, 143.750 339.346, 144.194 339.620 C 144.637 339.894, 145 338.291, 145 336.059 C 145 331.049, 144.361 330.783, 143.803 335.561 M 150 340.559 C 150 342.010, 150.433 342.851, 151 342.500 C 151.550 342.160, 152 341.009, 152 339.941 C 152 338.873, 151.550 338, 151 338 C 150.450 338, 150 339.152, 150 340.559 M 66.158 342 C 66.158 343.375, 66.385 343.938, 66.662 343.250 C 66.940 342.563, 66.940 341.438, 66.662 340.750 C 66.385 340.063, 66.158 340.625, 66.158 342 M 68 350.559 C 68 352.010, 68.433 352.851, 69 352.500 C 69.550 352.160, 70 351.009, 70 349.941 C 70 348.873, 69.550 348, 69 348 C 68.450 348, 68 349.152, 68 350.559 M 153.015 352.809 C 153.006 355.430, 153.392 356.876, 154 356.500 C 155.269 355.716, 155.269 351.963, 154 350 C 153.291 348.903, 153.027 349.658, 153.015 352.809 M 147.739 352.889 C 147.467 353.928, 147.633 355.391, 148.107 356.139 C 148.693 357.064, 148.974 356.460, 148.985 354.250 C 149.002 350.612, 148.483 350.045, 147.739 352.889" stroke="none" fill="#e8c1bd" fill-rule="evenodd"/><path d="M 130.303 69.398 C 126.967 72.206, 119 82.191, 119 83.565 C 119 84.049, 119.755 83.332, 120.678 81.973 C 125.566 74.769, 130.396 69.870, 132.156 70.330 C 134.325 70.898, 135.186 69.919, 134.086 68.139 C 133.499 67.189, 132.557 67.502, 130.303 69.398 M 71.004 73.495 C 70.004 74.700, 70.082 75.476, 71.405 77.495 C 73.337 80.444, 74.532 80.862, 73.035 78.066 C 71.628 75.437, 71.701 72.697, 73.155 73.595 C 73.870 74.038, 74.038 73.870, 73.595 73.155 C 72.680 71.673, 72.496 71.697, 71.004 73.495 M 131.600 73.600 C 131.244 74.527, 131.178 75.511, 131.453 75.786 C 131.728 76.061, 132.244 75.527, 132.600 74.600 C 132.956 73.673, 133.022 72.689, 132.747 72.414 C 132.472 72.139, 131.956 72.673, 131.600 73.600 M 79.513 77.389 C 82.256 79.254, 85.712 82.066, 87.193 83.639 C 91.263 87.962, 100.726 102.817, 103.189 108.750 C 104.524 111.966, 105.975 113.988, 106.934 113.968 C 108.345 113.940, 108.347 113.816, 106.953 112.718 C 106.103 112.048, 104.788 109.984, 104.033 108.131 C 101.828 102.724, 92.185 87.838, 88.181 83.658 C 84.428 79.741, 76.792 74, 75.333 74 C 74.890 74, 76.771 75.525, 79.513 77.389 M 130.146 79.500 C 130.051 81.150, 129.741 83.625, 129.458 85 L 128.944 87.500 130.019 85.035 C 130.611 83.679, 130.920 81.204, 130.707 79.535 L 130.320 76.500 130.146 79.500 M 76.500 86 C 77.894 88.750, 79.259 91, 79.534 91 C 79.809 91, 78.894 88.750, 77.500 86 C 76.106 83.250, 74.741 81, 74.466 81 C 74.191 81, 75.106 83.250, 76.500 86 M 117 86.059 C 117 86.641, 117.450 86.840, 118 86.500 C 118.550 86.160, 119 85.684, 119 85.441 C 119 85.198, 118.550 85, 118 85 C 117.450 85, 117 85.477, 117 86.059 M 112.885 94.593 C 111.241 98.220, 110.032 101.538, 110.198 101.967 C 110.364 102.397, 111.910 99.430, 113.634 95.374 C 117.525 86.220, 116.952 85.623, 112.885 94.593 M 127.940 122.500 C 127.632 140.650, 127.074 156.625, 126.700 158 C 126.327 159.375, 126.697 158.475, 127.522 156 C 128.753 152.310, 128.976 145.917, 128.761 120.500 L 128.500 89.500 127.940 122.500 M 80 92.211 C 80 93.290, 83.038 100, 83.527 100 C 83.802 100, 83.331 98.336, 82.481 96.301 C 80.983 92.714, 80 91.095, 80 92.211 M 84.044 102.135 C 84.020 103.035, 84.657 105.285, 85.461 107.135 C 87.349 111.485, 87.396 109.682, 85.529 104.500 C 84.736 102.300, 84.068 101.236, 84.044 102.135 M 108.667 104.667 C 108.300 105.033, 108.029 106.271, 108.063 107.417 C 108.122 109.332, 108.204 109.307, 109.085 107.105 C 110.064 104.657, 109.861 103.472, 108.667 104.667 M 87.683 115 C 88.011 117.475, 88.441 119.688, 88.639 119.917 C 89.391 120.785, 88.820 114.410, 87.974 112.500 C 87.383 111.165, 87.286 111.995, 87.683 115 M 89.099 130.583 C 89.153 134.387, 89.566 139.975, 90.015 143 C 90.567 146.713, 90.659 144.600, 90.298 136.500 C 89.714 123.370, 88.941 119.560, 89.099 130.583 M 91.100 157.083 C 91.155 159.512, 91.577 162.625, 92.039 164 C 92.566 165.568, 92.666 164.076, 92.307 160 C 91.637 152.390, 90.957 150.745, 91.100 157.083 M 124.624 162.539 C 124.281 163.432, 124.029 164.689, 124.063 165.332 C 124.098 165.974, 124.558 165.422, 125.085 164.105 C 125.612 162.787, 125.864 161.531, 125.645 161.312 C 125.426 161.093, 124.966 161.645, 124.624 162.539 M 123.079 167.668 C 123.036 168.311, 122.741 169.661, 122.424 170.668 C 121.877 172.409, 121.906 172.412, 122.995 170.712 C 123.626 169.729, 123.920 168.379, 123.650 167.712 C 123.295 166.837, 123.136 166.825, 123.079 167.668 M 93.015 170.583 C 93.024 172.188, 93.490 174.175, 94.052 175 C 94.785 176.075, 94.884 175.366, 94.404 172.500 C 93.574 167.539, 92.995 166.741, 93.015 170.583 M 120.571 175.571 C 120.204 177.037, 120.128 178.461, 120.403 178.736 C 120.678 179.011, 121.204 178.037, 121.571 176.571 C 121.939 175.106, 122.015 173.682, 121.740 173.407 C 121.465 173.132, 120.939 174.106, 120.571 175.571 M 95.136 178.855 C 94.995 181.291, 102.098 203.235, 102.800 202.533 C 103.018 202.315, 101.609 197.494, 99.668 191.819 C 97.728 186.143, 95.945 180.375, 95.707 179 C 95.280 176.542, 95.270 176.539, 95.136 178.855 M 119.123 182 C 119.040 182.825, 118.723 184.625, 118.418 186 C 117.938 188.161, 118.016 188.259, 118.997 186.721 C 119.621 185.743, 119.938 183.943, 119.702 182.721 C 119.466 181.500, 119.205 181.175, 119.123 182 M 116.614 193.867 C 116.222 196.818, 116.114 199.447, 116.375 199.708 C 117.042 200.375, 118.304 191.411, 117.768 189.813 C 117.526 189.091, 117.007 190.915, 116.614 193.867 M 94.813 204.683 C 95.534 204.972, 96.397 204.936, 96.729 204.604 C 97.061 204.272, 96.471 204.036, 95.417 204.079 C 94.252 204.127, 94.015 204.364, 94.813 204.683 M 176.742 229.429 C 177.042 230.999, 177.700 231.668, 178.603 231.322 C 180.748 230.499, 180.660 268.208, 178.513 269.989 C 177.695 270.668, 176.303 270.947, 175.420 270.608 C 174.343 270.194, 173.642 270.651, 173.291 271.996 C 172.919 273.417, 171.928 274, 169.883 274 C 167.376 274, 167 274.374, 167 276.865 C 167 278.441, 166.166 280.803, 165.146 282.115 C 163.664 284.022, 163.151 287.103, 162.588 297.500 C 162.201 304.650, 161.460 310.928, 160.942 311.450 C 160.424 311.973, 159.964 315.123, 159.921 318.450 C 159.833 325.192, 157.905 337.428, 156.749 338.585 C 156.337 338.996, 155.986 342.971, 155.968 347.417 C 155.948 352.455, 155.447 356.144, 154.638 357.209 C 153.453 358.769, 149.844 358.926, 113.419 359.002 C 91.464 359.048, 72.611 359.179, 71.526 359.293 C 70.085 359.444, 69.221 358.554, 68.331 356 L 67.111 352.500 67.306 357 L 67.500 361.500 109 361.787 C 131.825 361.945, 151.901 361.824, 153.613 361.518 C 156.580 360.987, 156.753 360.693, 157.310 355.230 C 157.631 352.079, 158.542 345.225, 159.335 340 C 160.128 334.775, 161.304 326, 161.948 320.500 C 162.592 315, 163.527 308.250, 164.027 305.500 C 164.527 302.750, 165.434 296.675, 166.041 292 C 168.010 276.855, 168.149 276.578, 174.994 274.083 C 179.424 272.467, 181.136 271.305, 181.558 269.627 C 181.871 268.378, 181.986 258.914, 181.814 248.596 C 181.526 231.381, 181.340 229.718, 179.559 228.418 C 176.824 226.421, 176.209 226.642, 176.742 229.429 M 39.195 234.500 C 39.215 236.150, 39.439 236.704, 39.693 235.731 C 39.947 234.758, 39.930 233.408, 39.656 232.731 C 39.382 232.054, 39.175 232.850, 39.195 234.500 M 52.750 236.662 C 53.438 236.940, 54.563 236.940, 55.250 236.662 C 55.938 236.385, 55.375 236.158, 54 236.158 C 52.625 236.158, 52.063 236.385, 52.750 236.662 M 39 268.306 C 39 270.852, 42.722 273.671, 47.820 274.987 C 50.394 275.652, 53.044 276.355, 53.709 276.551 C 54.374 276.746, 55.346 278.390, 55.869 280.203 C 56.778 283.355, 56.824 283.381, 56.910 280.789 C 57.028 277.236, 54.009 274.530, 48.180 272.962 C 45.606 272.269, 42.487 270.574, 41.250 269.196 C 39.545 267.296, 39 267.080, 39 268.306 M 57.419 289.532 C 57.809 291.088, 58.585 295.993, 59.142 300.431 C 59.699 304.869, 60.581 311.650, 61.102 315.500 C 61.623 319.350, 62.480 326.325, 63.006 331 C 63.532 335.675, 64.393 341.750, 64.919 344.500 C 65.755 348.873, 65.825 348.372, 65.480 340.500 C 65.102 331.880, 64.470 326.699, 62.185 313.500 C 61.614 310.200, 60.904 304.575, 60.606 301 C 59.897 292.474, 58.976 288.103, 57.725 287.330 C 57.069 286.924, 56.960 287.705, 57.419 289.532" stroke="none" fill="#e7cece" fill-rule="evenodd"/><path d="M 95.088 206.727 C 93.168 207.089, 92.964 207.384, 94.088 208.174 C 95.091 208.878, 94.462 209.023, 91.914 208.672 C 87.958 208.128, 84.744 209.282, 87.137 210.388 C 87.887 210.735, 86.821 210.819, 84.768 210.575 C 82.716 210.331, 80.777 210.552, 80.459 211.066 C 80.142 211.580, 80.696 212.030, 81.691 212.068 C 83.161 212.123, 83.065 212.345, 81.174 213.254 C 79.377 214.119, 78.664 214.075, 78.036 213.058 C 77.021 211.415, 74.903 212.582, 75.600 214.401 C 75.882 215.136, 75.300 216.008, 74.307 216.340 C 69.960 217.789, 62 225.019, 62 227.518 C 62 228.333, 61.550 229, 61 229 C 60.450 229, 60 229.450, 60 230 C 60 230.550, 60.718 231, 61.596 231 C 62.473 231, 64.386 231.844, 65.846 232.876 C 70.190 235.946, 88.588 237.299, 117.500 236.673 C 144.373 236.092, 162.847 234.834, 165.099 233.433 C 165.870 232.954, 167.439 232.683, 168.586 232.831 C 169.733 232.979, 171.235 232.422, 171.924 231.592 C 172.958 230.346, 172.724 229.633, 170.579 227.488 C 169.142 226.051, 167.472 225.208, 166.837 225.601 C 166.178 226.008, 165.962 225.870, 166.329 225.277 C 166.895 224.362, 162.099 220.557, 158 218.669 C 157.175 218.289, 155.150 217.116, 153.500 216.062 C 151.850 215.008, 149.713 214.113, 148.750 214.073 C 147.787 214.033, 147 213.550, 147 213 C 147 212.450, 146.127 212, 145.059 212 C 143.991 212, 142.852 211.570, 142.528 211.045 C 142.203 210.519, 140.402 210.210, 138.525 210.358 C 136.648 210.506, 135.310 210.308, 135.551 209.918 C 136.283 208.734, 133.333 208.082, 129.308 208.539 C 126.339 208.877, 126.051 208.791, 128 208.152 C 130.161 207.443, 129.822 207.254, 125.500 206.756 C 116.403 205.710, 114.997 205.900, 112.581 208.507 C 109.654 211.665, 107.665 211.663, 105.592 208.500 C 103.940 205.979, 101.363 205.544, 95.088 206.727 M 94 211.354 C 96.583 212.722, 98 212.576, 98 210.941 C 98 210.423, 96.537 210.007, 94.750 210.015 L 91.500 210.029 94 211.354 M 71.507 214.989 C 71.157 215.555, 71.558 215.723, 72.448 215.382 C 74.180 214.717, 74.497 214, 73.059 214 C 72.541 214, 71.843 214.445, 71.507 214.989 M 67.507 216.989 C 67.157 217.555, 67.558 217.723, 68.448 217.382 C 70.180 216.717, 70.497 216, 69.059 216 C 68.541 216, 67.843 216.445, 67.507 216.989 M 59.500 222 C 59.160 222.550, 59.359 223, 59.941 223 C 60.523 223, 61 222.550, 61 222 C 61 221.450, 60.802 221, 60.559 221 C 60.316 221, 59.840 221.450, 59.500 222 M 52.044 227.453 C 49.340 230.331, 49.933 233.060, 53.219 232.864 L 55.500 232.728 53.250 232.294 C 50.391 231.744, 50.363 229.560, 53.190 227.580 C 54.394 226.736, 55.146 225.812, 54.860 225.527 C 54.575 225.241, 53.308 226.108, 52.044 227.453 M 55.667 227.667 C 54.452 228.881, 54.976 229.947, 56.500 229.362 C 57.325 229.045, 58 228.384, 58 227.893 C 58 226.845, 56.622 226.711, 55.667 227.667 M 57.500 234 C 58.600 234.473, 60.625 234.859, 62 234.859 C 64.279 234.859, 64.323 234.783, 62.500 234 C 61.400 233.527, 59.375 233.141, 58 233.141 C 55.721 233.141, 55.677 233.217, 57.500 234" stroke="none" fill="#aa624a" fill-rule="evenodd"/><path d="M 115.750 204.662 C 116.438 204.940, 117.563 204.940, 118.250 204.662 C 118.938 204.385, 118.375 204.158, 117 204.158 C 115.625 204.158, 115.063 204.385, 115.750 204.662 M 96.813 205.683 C 97.534 205.972, 98.397 205.936, 98.729 205.604 C 99.061 205.272, 98.471 205.036, 97.417 205.079 C 96.252 205.127, 96.015 205.364, 96.813 205.683 M 121.083 205.372 C 121.313 205.576, 123.750 206.004, 126.500 206.321 C 129.872 206.711, 130.686 206.622, 129 206.049 C 126.502 205.200, 120.296 204.669, 121.083 205.372 M 92.813 206.683 C 93.534 206.972, 94.397 206.936, 94.729 206.604 C 95.061 206.272, 94.471 206.036, 93.417 206.079 C 92.252 206.127, 92.015 206.364, 92.813 206.683 M 132.813 207.683 C 133.534 207.972, 134.397 207.936, 134.729 207.604 C 135.061 207.272, 134.471 207.036, 133.417 207.079 C 132.252 207.127, 132.015 207.364, 132.813 207.683 M 137 208.954 C 137.825 209.513, 139.363 209.976, 140.417 209.985 C 142.975 210.005, 142.177 209.433, 138.500 208.610 C 136.309 208.120, 135.905 208.213, 137 208.954 M 143.733 211.124 C 144.412 211.808, 145.219 212.115, 145.526 211.807 C 145.834 211.499, 145.279 210.940, 144.293 210.564 C 142.868 210.022, 142.753 210.136, 143.733 211.124 M 148.733 213.124 C 149.412 213.808, 150.219 214.115, 150.526 213.807 C 150.834 213.499, 150.279 212.940, 149.293 212.564 C 147.868 212.022, 147.753 212.136, 148.733 213.124 M 152.733 215.124 C 153.412 215.808, 154.219 216.115, 154.526 215.807 C 154.834 215.499, 154.279 214.940, 153.293 214.564 C 151.868 214.022, 151.753 214.136, 152.733 215.124 M 49.872 227.750 C 48.629 229.336, 48.664 229.371, 50.250 228.128 C 51.916 226.821, 52.445 226, 51.622 226 C 51.415 226, 50.627 226.787, 49.872 227.750 M 172 228 C 172 228.550, 172.477 229, 173.059 229 C 173.641 229, 173.840 228.550, 173.500 228 C 173.160 227.450, 172.684 227, 172.441 227 C 172.198 227, 172 227.450, 172 228 M 48 230.941 C 48 231.459, 48.445 232.157, 48.989 232.493 C 49.555 232.843, 49.723 232.442, 49.382 231.552 C 48.717 229.820, 48 229.503, 48 230.941 M 174 230.960 C 174 231.488, 172.135 232.479, 169.855 233.162 C 167.575 233.845, 166.184 234.561, 166.762 234.754 C 168.320 235.273, 175 232.271, 175 231.051 C 175 230.473, 174.775 230, 174.500 230 C 174.225 230, 174 230.432, 174 230.960 M 52 234 C 52.825 234.533, 54.175 234.945, 55 234.914 C 55.989 234.878, 55.819 234.567, 54.500 234 C 51.751 232.819, 50.172 232.819, 52 234 M 60.269 235.693 C 61.242 235.947, 62.592 235.930, 63.269 235.656 C 63.946 235.382, 63.150 235.175, 61.500 235.195 C 59.850 235.215, 59.296 235.439, 60.269 235.693 M 157.250 235.689 C 158.213 235.941, 159.787 235.941, 160.750 235.689 C 161.713 235.438, 160.925 235.232, 159 235.232 C 157.075 235.232, 156.287 235.438, 157.250 235.689 M 69.269 236.693 C 70.242 236.947, 71.592 236.930, 72.269 236.656 C 72.946 236.382, 72.150 236.175, 70.500 236.195 C 68.850 236.215, 68.296 236.439, 69.269 236.693 M 149.762 236.707 C 151.006 236.946, 152.806 236.937, 153.762 236.687 C 154.718 236.437, 153.700 236.241, 151.500 236.252 C 149.300 236.263, 148.518 236.468, 149.762 236.707 M 86.797 237.745 C 91.361 237.930, 98.561 237.929, 102.797 237.742 C 107.034 237.555, 103.300 237.404, 94.500 237.405 C 85.700 237.406, 82.234 237.559, 86.797 237.745 M 124.250 237.742 C 127.963 237.934, 134.037 237.934, 137.750 237.742 C 141.463 237.549, 138.425 237.392, 131 237.392 C 123.575 237.392, 120.537 237.549, 124.250 237.742" stroke="none" fill="#c58366" fill-rule="evenodd"/><path d="M 99.813 203.683 C 100.534 203.972, 101.397 203.936, 101.729 203.604 C 102.061 203.272, 101.471 203.036, 100.417 203.079 C 99.252 203.127, 99.015 203.364, 99.813 203.683 M 120.750 203.662 C 121.438 203.940, 122.563 203.940, 123.250 203.662 C 123.938 203.385, 123.375 203.158, 122 203.158 C 120.625 203.158, 120.063 203.385, 120.750 203.662 M 127.750 204.662 C 128.438 204.940, 129.563 204.940, 130.250 204.662 C 130.938 204.385, 130.375 204.158, 129 204.158 C 127.625 204.158, 127.063 204.385, 127.750 204.662 M 81 208 C 80.175 208.533, 79.950 208.969, 80.500 208.969 C 81.050 208.969, 82.175 208.533, 83 208 C 83.825 207.467, 84.050 207.031, 83.500 207.031 C 82.950 207.031, 81.825 207.467, 81 208 M 140 208 C 140.825 208.533, 141.950 208.969, 142.500 208.969 C 143.050 208.969, 142.825 208.533, 142 208 C 141.175 207.467, 140.050 207.031, 139.500 207.031 C 138.950 207.031, 139.175 207.467, 140 208 M 145.733 210.124 C 146.412 210.808, 147.219 211.115, 147.526 210.807 C 147.834 210.499, 147.279 209.940, 146.293 209.564 C 144.868 209.022, 144.753 209.136, 145.733 210.124 M 72 212 C 71.099 212.582, 70.975 212.975, 71.691 212.985 C 72.346 212.993, 73.160 212.550, 73.500 212 C 74.267 210.758, 73.921 210.758, 72 212 M 67.500 214 C 67.160 214.550, 67.332 215, 67.882 215 C 68.432 215, 69.160 214.550, 69.500 214 C 69.840 213.450, 69.668 213, 69.118 213 C 68.568 213, 67.840 213.450, 67.500 214 M 58.500 219.588 L 55.500 222.165 59 219.906 C 63.490 217.009, 63.501 216.999, 62.417 217.005 C 61.913 217.008, 60.150 218.170, 58.500 219.588 M 45.702 225.846 C 41.175 227.442, 39.050 229.235, 39.015 231.490 C 39.007 232.034, 40.178 231.209, 41.617 229.657 C 43.373 227.763, 44.566 227.166, 45.241 227.841 C 45.885 228.485, 46.653 228.503, 47.374 227.890 C 47.993 227.363, 49.400 226.286, 50.500 225.498 C 53.088 223.642, 51.661 223.746, 45.702 225.846 M 171 224.437 C 171 225.418, 175.981 227.840, 176.447 227.086 C 176.750 226.596, 175.648 225.724, 173.999 225.149 C 172.349 224.574, 171 224.254, 171 224.437 M 39.402 252 C 39.402 260.525, 39.556 264.012, 39.743 259.750 C 39.931 255.488, 39.931 248.512, 39.743 244.250 C 39.556 239.988, 39.402 243.475, 39.402 252 M 52 276.393 C 52 276.609, 52.698 277.054, 53.552 277.382 C 54.442 277.723, 54.843 277.555, 54.493 276.989 C 53.906 276.038, 52 275.583, 52 276.393 M 56.195 285.500 C 56.215 287.150, 56.439 287.704, 56.693 286.731 C 56.947 285.758, 56.930 284.408, 56.656 283.731 C 56.382 283.054, 56.175 283.850, 56.195 285.500 M 57.158 292 C 57.158 293.375, 57.385 293.938, 57.662 293.250 C 57.940 292.563, 57.940 291.438, 57.662 290.750 C 57.385 290.063, 57.158 290.625, 57.158 292 M 58.158 297 C 58.158 298.375, 58.385 298.938, 58.662 298.250 C 58.940 297.563, 58.940 296.438, 58.662 295.750 C 58.385 295.063, 58.158 295.625, 58.158 297 M 59.079 306.583 C 59.127 307.748, 59.364 307.985, 59.683 307.188 C 59.972 306.466, 59.936 305.603, 59.604 305.271 C 59.272 304.939, 59.036 305.529, 59.079 306.583 M 60.158 312 C 60.158 313.375, 60.385 313.938, 60.662 313.250 C 60.940 312.563, 60.940 311.438, 60.662 310.750 C 60.385 310.063, 60.158 310.625, 60.158 312 M 62.158 325 C 62.158 326.375, 62.385 326.938, 62.662 326.250 C 62.940 325.563, 62.940 324.438, 62.662 323.750 C 62.385 323.063, 62.158 323.625, 62.158 325 M 64.079 343.583 C 64.127 344.748, 64.364 344.985, 64.683 344.188 C 64.972 343.466, 64.936 342.603, 64.604 342.271 C 64.272 341.939, 64.036 342.529, 64.079 343.583 M 65.011 350.083 C 65.038 353.542, 66.325 358.917, 67.023 358.486 C 67.445 358.225, 67.363 356.109, 66.840 353.784 C 65.851 349.383, 64.992 347.644, 65.011 350.083" stroke="none" fill="#f2cdce" fill-rule="evenodd"/><path d="M -0 231.004 L -0 462.009 110.250 461.754 L 220.500 461.500 220.752 230.750 L 221.004 -0 110.502 -0 L 0 0 -0 231.004 M 0.492 231.500 C 0.492 358.550, 0.608 410.674, 0.750 347.330 C 0.892 283.987, 0.892 180.037, 0.750 116.330 C 0.608 52.624, 0.492 104.450, 0.492 231.500 M 127.217 72.704 C 124.011 76.116, 120.738 80.166, 119.945 81.704 C 119.152 83.242, 118.229 84.725, 117.894 85 C 116.739 85.947, 110 100.713, 110 102.296 C 110 103.168, 109.550 104.160, 109 104.500 C 108.450 104.840, 108 106.877, 108 109.028 C 108 114.081, 106.124 113.487, 103.729 107.675 C 100.712 100.353, 90.627 85.722, 85.343 81 C 82.573 78.525, 78.463 75.524, 76.209 74.330 C 72.653 72.447, 71.951 72.354, 70.899 73.622 C 69.927 74.793, 70.084 75.622, 71.687 77.792 C 73.777 80.620, 79.731 91.977, 82.280 98 C 86.430 107.805, 88.191 115.991, 89.056 129.500 C 90.178 147.021, 91.739 162.991, 92.966 169.500 C 95.205 181.380, 95.867 183.970, 98.844 192.500 C 100.572 197.450, 101.989 201.817, 101.993 202.205 C 101.997 202.592, 100.313 203.178, 98.250 203.505 C 88.896 204.992, 75.388 209.667, 67.613 214.110 C 66.575 214.703, 64.137 216.081, 62.195 217.171 C 60.253 218.262, 57.277 220.188, 55.582 221.452 C 53.887 222.715, 50.025 224.531, 47 225.487 C 43.975 226.443, 40.938 227.936, 40.250 228.804 C 39.345 229.946, 39 235.845, 39 250.152 C 39 272.895, 38.776 272.303, 48.541 275.381 C 52.370 276.589, 54.364 277.815, 54.938 279.318 C 56.128 282.435, 61.021 315.809, 64.028 341.326 C 65.119 350.580, 66.474 359.018, 67.041 360.076 C 68.032 361.928, 69.642 361.999, 110.285 361.986 C 133.503 361.979, 153.453 361.717, 154.619 361.404 C 156.363 360.936, 156.839 359.835, 157.315 355.168 C 157.633 352.050, 158.542 345.225, 159.335 340 C 160.128 334.775, 161.304 326, 161.948 320.500 C 162.592 315, 163.527 308.250, 164.027 305.500 C 164.527 302.750, 165.434 296.675, 166.041 292 C 167.975 277.128, 168.312 276.389, 174.031 274.490 C 182.172 271.786, 182 272.283, 182 251.494 C 182 241.394, 181.552 231.951, 181.004 230.511 C 180.343 228.773, 178.408 227.194, 175.254 225.820 C 172.639 224.680, 168.475 222.327, 166 220.590 C 159.583 216.086, 154.105 213, 152.526 213 C 151.778 213, 151.017 212.633, 150.833 212.185 C 149.981 210.101, 135.479 205.488, 121.708 202.921 C 116.552 201.959, 115.986 201.619, 116.558 199.817 C 116.912 198.703, 117.587 195.477, 118.060 192.646 C 119.995 181.048, 121.572 174.926, 125.564 163.500 C 128.350 155.526, 128.362 155.387, 129.073 120.500 C 129.884 80.723, 130.072 78.849, 134.025 70.911 C 134.460 70.036, 134.418 68.686, 133.932 67.911 C 133.247 66.819, 131.728 67.903, 127.217 72.704" stroke="none" fill="#f8f6f8" fill-rule="evenodd"/><path d="M 45.564 229.293 C 45.940 230.279, 46.499 230.834, 46.807 230.526 C 47.115 230.219, 46.808 229.412, 46.124 228.733 C 45.136 227.753, 45.022 227.868, 45.564 229.293 M 69 238.760 C 69 239.178, 71.804 239.557, 75.232 239.604 C 79.133 239.657, 80.722 239.399, 79.482 238.915 C 76.885 237.900, 69 237.784, 69 238.760 M 152.250 238.716 C 153.762 238.945, 156.238 238.945, 157.750 238.716 C 159.262 238.487, 158.025 238.300, 155 238.300 C 151.975 238.300, 150.738 238.487, 152.250 238.716 M 152 343.559 C 152 345.516, 152.381 346.883, 152.847 346.595 C 154.012 345.875, 154.089 340, 152.933 340 C 152.420 340, 152 341.602, 152 343.559" stroke="none" fill="#ecc5c2" fill-rule="evenodd"/><path d="M 115 203 C 115 203.550, 115.477 204, 116.059 204 C 116.641 204, 116.840 203.550, 116.500 203 C 116.160 202.450, 115.684 202, 115.441 202 C 115.198 202, 115 202.450, 115 203 M 100.500 204 L 97.500 204.763 100.191 204.882 C 101.671 204.947, 103.160 204.550, 103.500 204 C 103.840 203.450, 103.979 203.053, 103.809 203.118 C 103.639 203.183, 102.150 203.580, 100.500 204 M 119.750 204.662 C 120.438 204.940, 121.563 204.940, 122.250 204.662 C 122.938 204.385, 122.375 204.158, 121 204.158 C 119.625 204.158, 119.063 204.385, 119.750 204.662 M 91 206.046 C 89.905 206.787, 90.309 206.880, 92.500 206.390 C 96.177 205.567, 96.975 204.995, 94.417 205.015 C 93.362 205.024, 91.825 205.487, 91 206.046 M 127.813 205.683 C 128.534 205.972, 129.397 205.936, 129.729 205.604 C 130.061 205.272, 129.471 205.036, 128.417 205.079 C 127.252 205.127, 127.015 205.364, 127.813 205.683 M 84 208 C 82.172 209.181, 83.751 209.181, 86.500 208 C 87.819 207.433, 87.989 207.122, 87 207.086 C 86.175 207.055, 84.825 207.467, 84 208 M 136.500 208 C 139.249 209.181, 140.828 209.181, 139 208 C 138.175 207.467, 136.825 207.055, 136 207.086 C 135.011 207.122, 135.181 207.433, 136.500 208 M 78.558 209.907 C 78.249 210.405, 78.898 210.578, 79.999 210.290 C 82.334 209.679, 82.629 209, 80.559 209 C 79.766 209, 78.866 209.408, 78.558 209.907 M 142 209.393 C 142 209.609, 142.698 210.054, 143.552 210.382 C 144.442 210.723, 144.843 210.555, 144.493 209.989 C 143.906 209.038, 142 208.583, 142 209.393 M 72 213 C 71.099 213.582, 70.975 213.975, 71.691 213.985 C 72.346 213.993, 73.160 213.550, 73.500 213 C 74.267 211.758, 73.921 211.758, 72 213 M 68 215 C 67.099 215.582, 66.975 215.975, 67.691 215.985 C 68.346 215.993, 69.160 215.550, 69.500 215 C 70.267 213.758, 69.921 213.758, 68 215 M 157.500 216.680 C 158.050 217.230, 160.750 219.143, 163.500 220.930 C 166.250 222.717, 167.600 223.307, 166.500 222.241 C 165.400 221.174, 162.700 219.262, 160.500 217.991 C 158.300 216.720, 156.950 216.130, 157.500 216.680 M 60.441 219.555 C 58.577 221.049, 58.589 221.067, 60.750 220.020 C 61.987 219.420, 63 218.720, 63 218.465 C 63 217.700, 62.481 217.921, 60.441 219.555 M 171.750 226.760 C 173.537 228.480, 175 230.386, 175 230.995 C 175 232.923, 168.840 234.722, 158 235.959 C 143.193 237.648, 142.358 237.856, 152 237.453 C 170.132 236.696, 176.435 234.913, 175.800 230.722 C 175.635 229.632, 173.925 227.591, 172 226.187 L 168.500 223.634 171.750 226.760 M 48.655 227.829 C 47.745 228.835, 47 230.377, 47 231.255 C 47 233.341, 52.464 236.031, 56.404 235.885 L 59.500 235.770 56 235.070 C 52.067 234.284, 48 232.310, 48 231.187 C 48 230.779, 48.701 229.445, 49.557 228.223 C 51.441 225.533, 50.933 225.311, 48.655 227.829 M 62.500 236.962 C 64.371 237.802, 79.825 238.433, 78.917 237.633 C 78.687 237.431, 74.450 236.995, 69.500 236.665 C 63.868 236.289, 61.248 236.400, 62.500 236.962 M 89 239.036 C 92.575 239.437, 102.700 239.766, 111.500 239.766 C 120.300 239.766, 130.425 239.437, 134 239.036 C 137.916 238.595, 128.970 238.305, 111.500 238.305 C 94.030 238.305, 85.084 238.595, 89 239.036 M 163.135 277.338 C 162.524 278.073, 160.557 278.737, 158.762 278.813 C 156.968 278.888, 150.100 279.404, 143.500 279.959 C 125.751 281.452, 89.586 281.216, 74.500 279.510 C 57.489 277.585, 57 277.595, 57 279.863 C 57 282.811, 76.669 284.500, 111 284.500 C 151.336 284.500, 164.931 283.229, 166.431 279.318 C 167.562 276.371, 165.143 274.918, 163.135 277.338" stroke="none" fill="#dfb6b4" fill-rule="evenodd"/><path d="M 45.564 229.293 C 45.940 230.279, 46.499 230.834, 46.807 230.526 C 47.115 230.219, 46.808 229.412, 46.124 228.733 C 45.136 227.753, 45.022 227.868, 45.564 229.293 M 69 238.760 C 69 239.178, 71.804 239.557, 75.232 239.604 C 79.133 239.657, 80.722 239.399, 79.482 238.915 C 76.885 237.900, 69 237.784, 69 238.760 M 152.250 238.716 C 153.762 238.945, 156.238 238.945, 157.750 238.716 C 159.262 238.487, 158.025 238.300, 155 238.300 C 151.975 238.300, 150.738 238.487, 152.250 238.716 M 152 343.559 C 152 345.516, 152.381 346.883, 152.847 346.595 C 154.012 345.875, 154.089 340, 152.933 340 C 152.420 340, 152 341.602, 152 343.559" stroke="none" fill="#ecc5c2" fill-rule="evenodd"/><path d="M 41.655 229.829 C 40.243 231.389, 40 234.323, 40 249.817 C 40 265.556, 40.230 268.245, 41.722 269.989 C 43.476 272.037, 45.624 272.819, 44.500 271 C 44.149 270.433, 44.990 270, 46.441 270 C 48.958 270, 50.189 271.940, 47.750 272.063 C 47.063 272.098, 47.618 272.573, 48.983 273.118 C 50.645 273.781, 52.217 273.767, 53.733 273.076 C 55.175 272.419, 56 272.399, 56 273.021 C 56 273.560, 55.246 274, 54.325 274 C 52.847 274, 52.877 274.221, 54.575 275.874 C 55.634 276.904, 56.950 277.416, 57.500 277.010 C 58.050 276.605, 62.325 276.897, 67 277.661 C 86.617 280.864, 150.476 280.218, 156.013 276.760 C 157.580 275.781, 158.413 275.777, 159.954 276.739 C 161.184 277.507, 162.131 277.596, 162.513 276.980 C 162.846 276.441, 163.991 276, 165.059 276 C 166.127 276, 167 275.550, 167 275 C 167 274.450, 168.298 274, 169.883 274 C 171.928 274, 172.919 273.417, 173.291 271.996 C 173.642 270.651, 174.343 270.194, 175.420 270.608 C 176.303 270.947, 177.695 270.668, 178.513 269.989 C 179.740 268.971, 179.974 265.582, 179.850 250.628 C 179.768 240.657, 179.512 233.745, 179.282 235.267 C 179.052 236.789, 178.445 237.775, 177.932 237.458 C 176.519 236.585, 176.814 234.328, 178.571 232.571 C 179.436 231.707, 179.686 231, 179.128 231 C 178.570 231, 177.425 231.983, 176.583 233.184 C 175.374 234.911, 173.791 235.460, 169.027 235.804 C 165.712 236.044, 163 236.616, 163 237.075 C 163 238.179, 158.782 238.784, 145.500 239.582 C 131.687 240.412, 83.103 240.326, 76.754 239.461 C 72.933 238.940, 71.890 239.124, 71.397 240.407 C 70.733 242.137, 64.158 242.440, 58.500 241 C 56.182 240.410, 57.034 240.210, 62.250 240.118 C 65.963 240.053, 69 239.595, 69 239.101 C 69 238.149, 61.843 236.938, 56.035 236.906 C 54.129 236.896, 51.987 236.404, 51.274 235.812 C 50.561 235.221, 48.520 233.943, 46.739 232.973 C 44.957 232.003, 43.563 230.487, 43.639 229.604 C 43.814 227.581, 43.675 227.596, 41.655 229.829 M 170 242 C 170 243.867, 170.267 244.133, 171.200 243.200 C 172.133 242.267, 172.133 241.733, 171.200 240.800 C 170.267 239.867, 170 240.133, 170 242 M 61.750 249.662 C 62.438 249.940, 63.563 249.940, 64.250 249.662 C 64.938 249.385, 64.375 249.158, 63 249.158 C 61.625 249.158, 61.063 249.385, 61.750 249.662 M 131.762 249.707 C 133.006 249.946, 134.806 249.937, 135.762 249.687 C 136.718 249.437, 135.700 249.241, 133.500 249.252 C 131.300 249.263, 130.518 249.468, 131.762 249.707 M 73.813 251.683 C 74.534 251.972, 75.397 251.936, 75.729 251.604 C 76.061 251.272, 75.471 251.036, 74.417 251.079 C 73.252 251.127, 73.015 251.364, 73.813 251.683 M 161 273 C 161 273.550, 161.477 274, 162.059 274 C 162.641 274, 162.840 273.550, 162.500 273 C 162.160 272.450, 161.684 272, 161.441 272 C 161.198 272, 161 272.450, 161 273 M 84.750 275.706 C 85.987 275.944, 88.013 275.944, 89.250 275.706 C 90.487 275.467, 89.475 275.272, 87 275.272 C 84.525 275.272, 83.513 275.467, 84.750 275.706 M 164.064 282.423 C 162.470 284.344, 153.981 284.893, 115.150 285.589 C 92.733 285.991, 80.298 285.808, 74.650 284.993 C 57.990 282.588, 57.303 282.574, 57.456 284.656 C 57.532 285.689, 57.870 286.981, 58.207 287.525 C 59.364 289.399, 60.571 297.153, 61.004 305.500 C 61.260 310.444, 61.272 310.461, 62.078 307 C 62.673 304.443, 62.761 305.165, 62.405 309.682 C 62.064 313.997, 62.392 317.003, 63.493 319.636 C 64.362 321.717, 64.811 324.585, 64.493 326.031 C 64.177 327.473, 64.413 329.957, 65.020 331.551 C 65.626 333.146, 66.259 338.286, 66.427 342.975 C 66.802 353.460, 68.719 359.589, 71.531 359.293 C 72.614 359.179, 91.464 359.048, 113.419 359.002 C 149.844 358.926, 153.453 358.769, 154.638 357.209 C 155.451 356.139, 155.948 352.436, 155.968 347.309 C 155.987 342.419, 156.447 338.842, 157.110 338.432 C 157.754 338.034, 157.995 336.355, 157.683 334.432 C 157.381 332.571, 157.594 330.969, 158.170 330.777 C 158.733 330.589, 159.434 326.400, 159.727 321.468 C 160.020 316.535, 160.624 312.037, 161.069 311.471 C 161.514 310.904, 162.189 304.604, 162.568 297.471 C 163.068 288.053, 163.675 284.021, 164.783 282.750 C 165.623 281.788, 166.070 281, 165.777 281 C 165.485 281, 164.713 281.640, 164.064 282.423 M 66.079 289.583 C 66.127 290.748, 66.364 290.985, 66.683 290.188 C 66.972 289.466, 66.936 288.603, 66.604 288.271 C 66.272 287.939, 66.036 288.529, 66.079 289.583 M 70.300 321 C 70.300 324.025, 70.487 325.262, 70.716 323.750 C 70.945 322.238, 70.945 319.762, 70.716 318.250 C 70.487 316.738, 70.300 317.975, 70.300 321 M 143.803 335.561 C 143.574 337.519, 143.750 339.346, 144.194 339.620 C 144.637 339.894, 145 338.291, 145 336.059 C 145 331.049, 144.361 330.783, 143.803 335.561 M 150 340.559 C 150 342.010, 150.433 342.851, 151 342.500 C 151.569 342.148, 152 343.009, 152 344.500 C 152 345.940, 152.394 346.875, 152.875 346.577 C 154.210 345.752, 153.917 340.774, 152.446 339.304 C 150.547 337.404, 150 337.685, 150 340.559 M 68 350.559 C 68 352.010, 68.433 352.851, 69 352.500 C 69.550 352.160, 70 351.009, 70 349.941 C 70 348.873, 69.550 348, 69 348 C 68.450 348, 68 349.152, 68 350.559 M 153.015 352.809 C 153.006 355.430, 153.392 356.876, 154 356.500 C 155.269 355.716, 155.269 351.963, 154 350 C 153.291 348.903, 153.027 349.658, 153.015 352.809 M 147.739 352.889 C 147.467 353.928, 147.633 355.391, 148.107 356.139 C 148.693 357.064, 148.974 356.460, 148.985 354.250 C 149.002 350.612, 148.483 350.045, 147.739 352.889" stroke="none" fill="#e9c6c3" fill-rule="evenodd"/><path d="M 99.750 205.662 C 100.438 205.940, 101.563 205.940, 102.250 205.662 C 102.938 205.385, 102.375 205.158, 101 205.158 C 99.625 205.158, 99.063 205.385, 99.750 205.662 M 116.250 205.689 C 117.213 205.941, 118.787 205.941, 119.750 205.689 C 120.713 205.438, 119.925 205.232, 118 205.232 C 116.075 205.232, 115.287 205.438, 116.250 205.689 M 90.813 207.683 C 91.534 207.972, 92.397 207.936, 92.729 207.604 C 93.061 207.272, 92.471 207.036, 91.417 207.079 C 90.252 207.127, 90.015 207.364, 90.813 207.683 M 135 209 C 135.825 209.533, 136.950 209.969, 137.500 209.969 C 138.050 209.969, 137.825 209.533, 137 209 C 136.175 208.467, 135.050 208.031, 134.500 208.031 C 133.950 208.031, 134.175 208.467, 135 209 M 79 211 C 78.099 211.582, 77.975 211.975, 78.691 211.985 C 79.346 211.993, 80.160 211.550, 80.500 211 C 81.267 209.758, 80.921 209.758, 79 211 M 147 213 C 147 213.550, 147.477 214, 148.059 214 C 148.641 214, 148.840 213.550, 148.500 213 C 148.160 212.450, 147.684 212, 147.441 212 C 147.198 212, 147 212.450, 147 213 M 156.226 217.579 C 157.176 218.570, 158.168 219.166, 158.431 218.903 C 158.694 218.640, 157.917 217.829, 156.705 217.100 C 154.598 215.835, 154.577 215.857, 156.226 217.579 M 51.174 227.314 C 48.821 229.819, 48.429 231.529, 49.989 232.493 C 50.562 232.847, 50.719 232.431, 50.362 231.501 C 49.995 230.544, 50.674 228.911, 52.048 227.449 C 53.313 226.102, 54.124 225, 53.849 225 C 53.574 225, 52.370 226.042, 51.174 227.314 M 172.255 230.963 C 171.230 232.605, 171.272 232.833, 172.515 232.356 C 173.332 232.043, 174 231.159, 174 230.393 C 174 228.538, 173.711 228.633, 172.255 230.963 M 165.372 232.981 C 164.892 233.435, 163.600 234.022, 162.500 234.287 C 160.891 234.674, 160.989 234.777, 163 234.814 C 164.375 234.839, 166.367 234.520, 167.427 234.105 C 169.043 233.471, 169.103 233.254, 167.799 232.753 C 166.943 232.425, 165.851 232.527, 165.372 232.981 M 54.500 234 C 55.600 234.473, 57.175 234.859, 58 234.859 C 58.945 234.859, 58.761 234.542, 57.500 234 C 56.400 233.527, 54.825 233.141, 54 233.141 C 53.055 233.141, 53.239 233.458, 54.500 234 M 69 236.042 C 72.025 236.460, 76.975 236.783, 80 236.760 L 85.500 236.718 80 235.958 C 76.975 235.540, 72.025 235.217, 69 235.240 L 63.500 235.282 69 236.042 M 141.500 236 L 137.500 236.716 142 236.770 C 144.475 236.800, 148.750 236.474, 151.500 236.046 L 156.500 235.267 151 235.276 C 147.975 235.280, 143.700 235.606, 141.500 236 M 111.750 237.706 C 112.987 237.944, 115.013 237.944, 116.250 237.706 C 117.487 237.467, 116.475 237.272, 114 237.272 C 111.525 237.272, 110.513 237.467, 111.750 237.706" stroke="none" fill="#bc7c65" fill-rule="evenodd"/><path d="M 94 211.354 C 96.583 212.722, 98 212.576, 98 210.941 C 98 210.423, 96.537 210.007, 94.750 210.015 L 91.500 210.029 94 211.354" stroke="none" fill="#b7613d" fill-rule="evenodd"/><path d="M 91.269 208.693 C 92.242 208.947, 93.592 208.930, 94.269 208.656 C 94.946 208.382, 94.150 208.175, 92.500 208.195 C 90.850 208.215, 90.296 208.439, 91.269 208.693 M 127.269 208.693 C 128.242 208.947, 129.592 208.930, 130.269 208.656 C 130.946 208.382, 130.150 208.175, 128.500 208.195 C 126.850 208.215, 126.296 208.439, 127.269 208.693 M 84.269 210.693 C 85.242 210.947, 86.592 210.930, 87.269 210.656 C 87.946 210.382, 87.150 210.175, 85.500 210.195 C 83.850 210.215, 83.296 210.439, 84.269 210.693 M 78 213 C 78 214.264, 80.043 214.264, 82 213 C 83.169 212.245, 82.893 212.027, 80.750 212.015 C 79.237 212.007, 78 212.450, 78 213 M 68 217.545 C 64.425 219.469, 61.350 221.484, 61.167 222.022 C 60.983 222.560, 60.303 223, 59.656 223 C 58.043 223, 50.985 229.227, 50.994 230.643 C 50.997 231.272, 53.587 232.284, 56.750 232.891 C 59.913 233.499, 63.850 234.257, 65.500 234.574 L 68.500 235.153 66 233.098 C 64.625 231.969, 62.712 231.034, 61.750 231.022 C 60.788 231.010, 60 230.550, 60 230 C 60 229.450, 60.450 229, 61 229 C 61.550 229, 62 228.333, 62 227.518 C 62 225.040, 69.945 217.800, 74.250 216.354 C 75.962 215.780, 76.734 213.978, 75.250 214.023 C 74.838 214.035, 71.575 215.620, 68 217.545 M 55.667 227.667 C 54.452 228.881, 54.976 229.947, 56.500 229.362 C 57.325 229.045, 58 228.384, 58 227.893 C 58 226.845, 56.622 226.711, 55.667 227.667" stroke="none" fill="#a4553a" fill-rule="evenodd"/><path d="M 106.504 210.007 C 107.228 211.178, 111 211.355, 111 210.218 C 111 209.788, 109.850 209.341, 108.445 209.225 C 106.964 209.102, 106.148 209.431, 106.504 210.007" stroke="none" fill="#c17c48" fill-rule="evenodd"/><path d="M 126.724 74.536 C 122.602 78.777, 114.879 90.995, 113.473 95.500 C 113.130 96.600, 114.457 94.575, 116.424 91 C 118.390 87.425, 122.100 81.824, 124.668 78.554 C 128.736 73.373, 129.434 72.859, 130.098 74.554 C 130.517 75.624, 130.948 76.050, 131.057 75.500 C 131.485 73.339, 131.711 70, 131.430 70 C 131.267 70, 129.149 72.041, 126.724 74.536 M 72 74.945 C 72 75.464, 74.443 80.527, 77.430 86.195 C 86.051 102.559, 88.561 111.572, 89.913 131.032 C 91.421 152.728, 92.797 164.651, 94.986 175 C 96.934 184.207, 101.580 198.744, 103.211 200.737 C 103.768 201.418, 103.954 202.679, 103.623 203.539 C 103.278 204.439, 103.443 204.844, 104.011 204.493 C 105.240 203.734, 105.324 200, 104.113 200 C 103.626 200, 103.002 198.762, 102.728 197.250 C 102.274 194.747, 101.005 190.833, 98.919 185.500 C 98.488 184.400, 97.864 181.925, 97.531 180 C 96.067 171.527, 95.816 170.392, 94.991 168.500 C 93.942 166.097, 93.178 157.863, 92.021 136.500 C 91.060 118.744, 90.158 112.657, 87.506 106 C 86.519 103.525, 85.665 100.075, 85.606 98.333 C 85.548 96.592, 85.070 95.242, 84.545 95.333 C 84.020 95.425, 83.570 94.960, 83.545 94.300 C 83.520 93.640, 82.938 92.537, 82.250 91.850 C 81.563 91.162, 81 90.264, 81 89.854 C 81 89.443, 79.425 86.420, 77.500 83.135 C 75.575 79.851, 74 76.890, 74 76.556 C 74 76.222, 75.337 76.640, 76.971 77.485 C 80.762 79.446, 89.048 87.580, 91.525 91.773 C 92.574 93.548, 93.784 95, 94.216 95 C 94.647 95, 95 95.830, 95 96.845 C 95 97.860, 95.813 99.426, 96.807 100.325 C 98.440 101.804, 103.010 110.797, 104.411 115.293 C 104.866 116.751, 105.347 116.885, 106.985 116.008 C 108.093 115.415, 109 113.963, 109 112.781 C 109 111.600, 109.941 107.982, 111.092 104.742 C 112.242 101.501, 112.967 98.634, 112.702 98.369 C 112.091 97.757, 108 109.783, 108 112.194 C 108 115.798, 105.317 113.878, 103.189 108.750 C 100.550 102.393, 91.098 87.748, 86.696 83.194 C 83.184 79.562, 74.998 74, 73.162 74 C 72.523 74, 72 74.425, 72 74.945 M 128.500 82 C 128.112 84.820, 128.020 87.353, 128.295 87.628 C 128.570 87.903, 129.112 85.820, 129.500 83 C 129.888 80.180, 129.980 77.647, 129.705 77.372 C 129.430 77.097, 128.888 79.180, 128.500 82 M 127.397 108 C 127.397 115.975, 127.553 119.237, 127.743 115.250 C 127.932 111.263, 127.932 104.737, 127.743 100.750 C 127.553 96.763, 127.397 100.025, 127.397 108 M 127.174 144 C 127.066 146.475, 126.760 150.300, 126.493 152.500 L 126.008 156.500 127.053 153.169 C 127.628 151.338, 127.935 147.513, 127.734 144.669 L 127.370 139.500 127.174 144 M 123.749 162.105 C 122.819 165.013, 122.205 167.539, 122.385 167.718 C 122.958 168.292, 126.181 159.043, 125.803 157.909 C 125.603 157.309, 124.679 159.198, 123.749 162.105 M 121.079 170.583 C 121.127 171.748, 121.364 171.985, 121.683 171.188 C 121.972 170.466, 121.936 169.603, 121.604 169.271 C 121.272 168.939, 121.036 169.529, 121.079 170.583 M 119.500 176 C 119.120 177.729, 119.018 179.351, 119.273 179.606 C 119.528 179.861, 120.024 178.632, 120.375 176.875 C 121.209 172.707, 120.401 171.899, 119.500 176 M 117.624 182.539 C 117.281 183.432, 117.041 185.139, 117.090 186.332 C 117.154 187.868, 117.462 187.521, 118.147 185.140 C 119.143 181.679, 118.734 179.645, 117.624 182.539 M 115.689 193.026 C 115.325 194.387, 115.066 196.625, 115.114 198 C 115.176 199.796, 115.461 199.392, 116.123 196.567 C 117.138 192.237, 116.749 189.062, 115.689 193.026" stroke="none" fill="#acc36a" fill-rule="evenodd"/><path d="M 74 76.556 C 74 76.890, 75.575 79.851, 77.500 83.135 C 79.425 86.420, 81 89.443, 81 89.854 C 81 90.264, 81.563 91.163, 82.250 91.850 C 82.938 92.537, 83.520 93.640, 83.545 94.300 C 83.570 94.960, 84.020 95.425, 84.545 95.333 C 85.070 95.242, 85.548 96.592, 85.606 98.333 C 85.665 100.075, 86.519 103.525, 87.506 106 C 90.158 112.657, 91.060 118.744, 92.021 136.500 C 93.178 157.863, 93.942 166.097, 94.991 168.500 C 95.471 169.600, 96.119 171.963, 96.432 173.750 C 96.744 175.537, 97.256 178.463, 97.568 180.250 C 97.881 182.037, 98.488 184.400, 98.919 185.500 C 101.005 190.833, 102.274 194.747, 102.728 197.250 C 103.002 198.763, 103.595 200, 104.044 200 C 104.493 200, 105.015 201.012, 105.204 202.250 C 105.395 203.503, 106.145 204.371, 106.896 204.209 C 107.771 204.021, 108.027 204.486, 107.626 205.532 C 107.178 206.700, 107.489 207.040, 108.754 206.763 C 109.715 206.553, 110.309 205.734, 110.076 204.941 C 109.173 201.875, 109.845 187.350, 111.021 184.500 C 111.780 182.662, 112.445 174.335, 112.739 163 C 113.130 147.896, 112.901 143.031, 111.491 136.500 C 108.241 121.451, 107.939 119.497, 108.501 117.198 C 109.006 115.136, 108.850 115.010, 107.017 115.991 C 105.341 116.888, 104.869 116.762, 104.411 115.293 C 102.894 110.425, 98.385 101.771, 96.390 99.896 C 95.155 98.736, 94.385 97.160, 94.679 96.394 C 94.973 95.627, 94.813 95, 94.323 95 C 93.832 95, 92.574 93.548, 91.525 91.773 C 89.048 87.580, 80.762 79.446, 76.971 77.485 C 75.337 76.640, 74 76.222, 74 76.556 M 116.564 90.707 C 116.022 92.132, 116.136 92.247, 117.124 91.267 C 117.808 90.588, 118.115 89.781, 117.807 89.474 C 117.499 89.166, 116.940 89.721, 116.564 90.707 M 127.158 124 C 127.158 125.375, 127.385 125.938, 127.662 125.250 C 127.940 124.563, 127.940 123.438, 127.662 122.750 C 127.385 122.063, 127.158 122.625, 127.158 124 M 127.158 138 C 127.158 139.375, 127.385 139.938, 127.662 139.250 C 127.940 138.563, 127.940 137.438, 127.662 136.750 C 127.385 136.063, 127.158 136.625, 127.158 138" stroke="none" fill="#95b53b" fill-rule="evenodd"/><path d="M 128.350 74.140 C 121.919 82.264, 114 95.972, 114 98.983 C 114 99.872, 113.496 101.104, 112.880 101.720 C 111.575 103.025, 109.832 110.176, 109.765 114.500 C 109.740 116.150, 110.682 119.613, 111.860 122.195 C 113.485 125.761, 114 128.842, 114 135.004 C 114 139.594, 114.393 142.875, 114.905 142.558 C 116.243 141.732, 115.084 126.217, 113.291 120.941 C 111.770 116.465, 111.788 116.332, 114.236 113.691 C 117.276 110.410, 118.781 110.295, 119.969 113.250 C 120.857 115.459, 120.874 115.461, 120.937 113.372 C 120.971 112.202, 120.388 110.737, 119.640 110.117 C 118.556 109.216, 118.503 108.130, 119.381 104.744 C 119.986 102.410, 121.047 99.905, 121.740 99.179 C 122.767 98.101, 123 98.393, 123 100.762 C 123 102.360, 122.701 103.966, 122.335 104.332 C 121.254 105.413, 121.061 109.920, 122.070 110.543 C 123.324 111.319, 123.262 118, 122 118 C 121.450 118, 121 119.377, 121 121.059 C 121 122.844, 121.417 123.861, 122 123.500 C 122.651 123.098, 123 128.621, 123 139.334 C 123 151.573, 122.680 155.909, 121.750 156.265 C 120.977 156.562, 120.443 155.800, 120.350 154.272 C 120.171 151.339, 118.608 149.506, 117.087 150.446 C 115.475 151.443, 115.770 157.564, 117.500 159 C 119.730 160.851, 119.320 164.466, 116.500 167.818 C 114.311 170.419, 114 171.738, 114 178.430 C 114 183.291, 113.487 186.876, 112.590 188.285 C 110.781 191.126, 110.052 203.168, 111.655 203.712 C 112.922 204.141, 114.137 200.692, 115.960 191.500 C 118.027 181.070, 120.538 171.607, 123.639 162.554 C 126.529 154.116, 126.979 147.901, 127.403 110.500 C 127.627 90.794, 128.124 80.465, 128.956 78.271 C 130.379 74.521, 130.015 72.038, 128.350 74.140 M 121 91 C 120.112 91.574, 119.983 91.976, 120.684 91.985 C 121.335 91.993, 122.055 93.237, 122.284 94.750 C 122.619 96.962, 122.730 96.766, 122.850 93.750 C 122.933 91.688, 122.888 90.007, 122.750 90.015 C 122.612 90.024, 121.825 90.467, 121 91 M 115.574 101.297 C 115.126 102.835, 115.039 104.372, 115.380 104.713 C 116.499 105.833, 117.158 104.235, 116.770 101.341 L 116.389 98.500 115.574 101.297 M 117.854 122.406 C 117.659 125.589, 117.787 128.371, 118.138 128.587 C 119.247 129.270, 120.162 120.111, 119.162 118.326 C 118.448 117.050, 118.118 118.081, 117.854 122.406 M 120.374 142.467 C 120.065 143.274, 120.004 144.511, 120.240 145.217 C 120.476 145.923, 120.906 145.262, 121.196 143.750 C 121.762 140.797, 121.295 140.068, 120.374 142.467" stroke="none" fill="#7d8e49" fill-rule="evenodd"/><path d="M 121 91 C 120.112 91.574, 119.983 91.976, 120.684 91.985 C 121.335 91.993, 122.055 93.237, 122.284 94.750 C 122.619 96.962, 122.730 96.766, 122.850 93.750 C 122.933 91.688, 122.888 90.007, 122.750 90.015 C 122.612 90.024, 121.825 90.467, 121 91 M 121.494 99.350 C 120.941 99.983, 119.992 102.410, 119.385 104.744 C 118.503 108.133, 118.555 109.216, 119.640 110.117 C 120.388 110.737, 120.971 112.202, 120.937 113.372 C 120.874 115.461, 120.857 115.459, 119.969 113.250 C 118.781 110.295, 117.276 110.410, 114.236 113.691 C 111.788 116.332, 111.770 116.465, 113.291 120.941 C 115.084 126.217, 116.243 141.732, 114.905 142.558 C 114.394 142.875, 113.985 139.506, 113.966 134.809 C 113.941 128.698, 113.421 125.442, 112 122.500 C 110.937 120.300, 110.053 117.847, 110.034 117.050 C 110.009 115.979, 109.707 115.893, 108.879 116.721 C 107.704 117.896, 108.159 121.308, 111.583 137 C 112.890 142.991, 113.123 148.222, 112.739 163 C 112.476 173.175, 111.797 182.647, 111.231 184.049 C 109.574 188.155, 108.573 200, 109.884 200 C 110.551 200, 111 198.065, 111 195.191 C 111 192.511, 111.650 189.523, 112.468 188.441 C 113.462 187.127, 113.947 183.961, 113.968 178.644 C 113.996 171.750, 114.306 170.425, 116.500 167.818 C 119.320 164.466, 119.730 160.851, 117.500 159 C 115.770 157.564, 115.475 151.443, 117.087 150.446 C 118.608 149.506, 120.171 151.339, 120.350 154.272 C 120.443 155.800, 120.977 156.562, 121.750 156.265 C 122.680 155.909, 123 151.573, 123 139.334 C 123 128.621, 122.651 123.098, 122 123.500 C 121.417 123.861, 121 122.844, 121 121.059 C 121 119.377, 121.450 118, 122 118 C 123.262 118, 123.324 111.319, 122.070 110.543 C 121.081 109.932, 121.268 106.602, 122.447 103.823 C 123.497 101.347, 122.763 97.900, 121.494 99.350 M 115.574 101.297 C 115.126 102.835, 115.039 104.372, 115.380 104.713 C 116.499 105.833, 117.158 104.235, 116.770 101.341 L 116.389 98.500 115.574 101.297 M 109.624 109.539 C 108.659 112.053, 108.943 112.702, 110.122 110.675 C 110.706 109.671, 110.973 108.639, 110.715 108.382 C 110.458 108.124, 109.966 108.645, 109.624 109.539 M 117.854 122.406 C 117.659 125.589, 117.787 128.371, 118.138 128.587 C 119.247 129.270, 120.162 120.111, 119.162 118.326 C 118.448 117.050, 118.118 118.081, 117.854 122.406 M 120.374 142.467 C 120.065 143.274, 120.004 144.511, 120.240 145.217 C 120.476 145.923, 120.906 145.262, 121.196 143.750 C 121.762 140.797, 121.295 140.068, 120.374 142.467" stroke="none" fill="#7d9632" fill-rule="evenodd"/><path d="M 127.079 127.583 C 127.127 128.748, 127.364 128.985, 127.683 128.188 C 127.972 127.466, 127.936 126.603, 127.604 126.271 C 127.272 125.939, 127.036 126.529, 127.079 127.583 M 127.195 133.500 C 127.215 135.150, 127.439 135.704, 127.693 134.731 C 127.947 133.758, 127.930 132.408, 127.656 131.731 C 127.382 131.054, 127.175 131.850, 127.195 133.500 M 113 203 C 113 203.550, 112.298 204, 111.441 204 C 110.584 204, 110.162 204.453, 110.504 205.007 C 111.656 206.870, 107.949 207.313, 106.604 205.473 C 105.848 204.439, 104.794 204.009, 104.087 204.447 C 102.149 205.644, 105.831 209, 109.084 209 C 110.609 209, 112.564 208.293, 113.429 207.429 C 115.174 205.684, 115.561 202, 114 202 C 113.450 202, 113 202.450, 113 203" stroke="none" fill="#a18a43" fill-rule="evenodd"/></svg>